<?xml version="1.0" encoding="UTF-8" standalone="no"?>
<svg
   xmlns:dc="http://purl.org/dc/elements/1.1/"
   xmlns:cc="http://creativecommons.org/ns#"
   xmlns:rdf="http://www.w3.org/1999/02/22-rdf-syntax-ns#"
   xmlns:svg="http://www.w3.org/2000/svg"
   xmlns="http://www.w3.org/2000/svg"
   xmlns:sodipodi="http://sodipodi.sourceforge.net/DTD/sodipodi-0.dtd"
   xmlns:inkscape="http://www.inkscape.org/namespaces/inkscape"
   version="1.1"
   id="svg2"
   xml:space="preserve"
   width="1600"
   height="1600"
   viewBox="0 0 1600 1600"
   sodipodi:docname="80457.eps"><metadata
     id="metadata8"><rdf:RDF><cc:Work
         rdf:about=""><dc:format>image/svg+xml</dc:format><dc:type
           rdf:resource="http://purl.org/dc/dcmitype/StillImage" /></cc:Work></rdf:RDF></metadata><defs
     id="defs6" /><sodipodi:namedview
     pagecolor="#ffffff"
     bordercolor="#666666"
     borderopacity="1"
     objecttolerance="10"
     gridtolerance="10"
     guidetolerance="10"
     inkscape:pageopacity="0"
     inkscape:pageshadow="2"
     inkscape:window-width="640"
     inkscape:window-height="480"
     id="namedview4" /><g
     id="g10"
     inkscape:groupmode="layer"
     inkscape:label="ink_ext_XXXXXX"
     transform="matrix(1.3333333,0,0,-1.3333333,0,1600)"><g
       id="g12"
       transform="scale(0.1)"><path
         d="M 0,0 H 12000 V 12000 H 0 Z"
         style="fill:#ffffff;fill-opacity:1;fill-rule:nonzero;stroke:none"
         id="path14" /><path
         d="m 1676.04,3132.69 c 65.66,-564.14 409.93,-501.28 755.9,-493.51 2524.99,56.73 5072.85,16 7568.56,368.01 211.4,29.81 394.1,24.45 503.9,152.4 105.3,122.83 34.8,686.83 30,840.4 -45,1429.79 -151.2,2941.31 -311.5,4363.55 -12.8,113.15 -35.5,241.09 -141.9,303.67 -72.6,42.72 -166.14,42.92 -253.66,41.6 -2113.1,-31.69 -4226,-89.29 -6337.89,-172.78 -623.18,-24.64 -1546.58,8.49 -1832.52,-143.67 -79.93,-42.54 -188.14,-167.39 -168.5,-1060.75 19.65,-893.35 139.4,-3784.67 187.61,-4198.92"
         style="fill:#b2702f;fill-opacity:1;fill-rule:nonzero;stroke:none"
         id="path16" /><path
         d="m 1653.67,3131.77 c 20.99,-166.9 68.47,-351.74 219.96,-447.41 121.5,-76.73 274.37,-76.08 412.96,-72.23 579.95,16.11 1160.12,23.49 1740.23,32.08 1250.07,18.48 2500.84,38.11 3748.77,118.68 621.9,40.15 1242.95,95.41 1861.31,173.3 150.57,18.97 300.71,42.06 451.4,59.53 106.1,12.29 218.6,19.15 317.1,63.96 151,68.66 171.5,199.2 177.5,350.35 7.1,177.29 -10.8,354.32 -22.8,530.99 -17.6,259.58 -19.3,520.85 -30.9,780.81 -27.3,608.38 -64.6,1216.33 -111.7,1823.51 -46.8,602.56 -102.2,1204.67 -170.7,1805.17 -10.9,95.67 -24.1,199.49 -86.6,276.99 -67.3,83.37 -171.87,101.8 -273.49,103.8 -307.17,6.05 -616.19,-8.86 -923.37,-14.5 -1259.93,-23.1 -2519.69,-55.41 -3779.15,-96.93 -609.65,-20.1 -1219.21,-49.35 -1828.96,-65.83 -455.78,-12.32 -918.19,5.59 -1371.14,-54.95 -172.15,-23.01 -374.91,-42.49 -443.86,-223.6 -42.27,-111.04 -53.95,-233.79 -63.34,-351.26 -17.3,-216.52 -14.76,-434.36 -9.49,-651.3 16.15,-664.18 43.94,-1328.19 71.95,-1991.96 27.25,-646.02 52.11,-1292.79 96.69,-1937.89 4.86,-70.48 9.58,-141.11 17.63,-211.31 3.26,-28.46 48.03,-26.86 44.74,1.83 -20.74,180.99 -27.94,364.05 -38.17,545.83 -18,320.02 -33.3,640.19 -47.94,960.38 -32.55,712.14 -61.66,1424.48 -85.35,2136.97 -10.38,312.23 -24.78,625.57 -16.13,937.95 4.33,156.79 11.05,317.82 48.64,470.83 14.33,58.31 33.75,127.9 81.2,168.93 75.69,65.45 208.21,79.42 302.26,93.72 203.47,30.95 410.5,39.05 615.96,45.34 503.91,15.43 1007.65,23.6 1511.54,42.39 1209.71,45.1 2419.74,81.72 3629.95,109.83 610.05,14.17 1220.15,26.18 1830.27,36.04 142.16,2.29 294.75,20.47 435.83,-0.67 156.83,-23.49 211.43,-145.82 230.33,-288.25 37.3,-281.3 61.8,-565.02 89,-847.45 111.7,-1160.57 186.5,-2324.93 224.4,-3490.25 5.3,-162.86 23.5,-324.93 28.1,-487.85 4.4,-154.33 28,-368.6 -128.7,-455.66 -103.7,-57.67 -232.4,-60.24 -347.5,-74.08 -147.44,-17.71 -294.32,-40.03 -441.63,-58.51 -296.87,-37.22 -594.38,-69.24 -892.28,-96.89 -1199.99,-111.39 -2405.2,-151.89 -3609.71,-175.29 -600.77,-11.67 -1201.6,-19.04 -1802.41,-28.7 -297.59,-4.78 -595.25,-9.16 -892.79,-16.85 -147.72,-3.82 -308.1,-24.24 -450.67,25.11 -190.73,66.04 -251.24,264.65 -274.2,447.13 -3.57,28.39 -48.34,26.81 -44.74,-1.83"
         style="fill:#4c4c4d;fill-opacity:1;fill-rule:nonzero;stroke:none"
         id="path18" /><path
         d="m 6213.24,8888.12 c 5.13,-1.62 9.55,-4.35 13.28,-8.21 0.97,-0.73 1.94,-1.45 2.9,-2.16 5.11,-4.95 8.63,-10.75 10.55,-17.42 0.47,-3.49 0.95,-6.97 1.42,-10.46 -0.07,-7.1 -2.01,-13.7 -5.78,-19.81 -2.18,-2.64 -4.36,-5.27 -6.54,-7.91 -3.78,-3.81 -8.24,-6.5 -13.39,-8.05 -4.95,-2.43 -10.27,-3.52 -15.97,-3.28 -5.72,-0.17 -11.03,1 -15.95,3.49 -5.12,1.62 -9.55,4.35 -13.28,8.21 -0.97,0.72 -1.93,1.44 -2.9,2.16 -5.1,4.94 -8.61,10.75 -10.55,17.42 -0.47,3.49 -0.94,6.97 -1.4,10.46 0.06,7.1 1.99,13.69 5.78,19.81 2.17,2.64 4.35,5.27 6.53,7.91 3.77,3.81 8.23,6.49 13.38,8.05 4.95,2.42 10.28,3.52 15.98,3.28 5.71,0.17 11.02,-1 15.94,-3.49 m 227.64,-116.85 c -0.32,-50.67 -83.19,-50.06 -82.85,0.54 0.32,50.67 83.17,50.06 82.85,-0.54 m -76.89,-197.29 c 7.48,-0.07 14.44,-1.91 20.88,-5.5 2.77,-2.07 5.56,-4.13 8.34,-6.2 5.11,-4.94 8.63,-10.75 10.55,-17.42 0.47,-3.48 0.94,-6.97 1.4,-10.46 0.19,-5.41 -1.03,-10.45 -3.66,-15.12 -1.69,-4.87 -4.58,-9.07 -8.64,-12.6 -3.78,-3.81 -8.24,-6.49 -13.39,-8.04 -4.95,-2.43 -10.28,-3.53 -15.98,-3.28 h -1.31 c -7.48,0.07 -14.45,1.91 -20.88,5.5 -2.78,2.07 -5.57,4.14 -8.35,6.21 -5.1,4.93 -8.61,10.74 -10.54,17.41 -0.47,3.49 -0.95,6.98 -1.41,10.46 -0.18,5.42 1.04,10.46 3.66,15.12 1.71,4.87 4.59,9.07 8.65,12.6 3.78,3.81 8.23,6.49 13.38,8.04 4.96,2.44 10.28,3.53 15.99,3.29 l 1.31,-0.01 m -126.57,-114.75 c -0.32,-50.67 -83.17,-50.06 -82.85,0.54 0.32,50.67 83.18,50.05 82.85,-0.54 m 165.68,-172.2 c 5.13,-1.62 9.57,-4.36 13.29,-8.21 l 1.3,-1.26 c 5.11,-4.94 8.63,-10.74 10.55,-17.41 0.47,-3.49 0.94,-6.98 1.42,-10.47 -0.07,-7.09 -2,-13.69 -5.79,-19.8 -2.17,-2.64 -4.35,-5.28 -6.53,-7.92 -3.78,-3.8 -8.24,-6.49 -13.39,-8.04 -4.95,-2.43 -10.28,-3.52 -15.97,-3.28 -5.72,-0.17 -11.03,0.99 -15.95,3.48 -5.13,1.62 -9.55,4.36 -13.28,8.22 l -1.31,1.25 c -5.1,4.94 -8.61,10.75 -10.54,17.42 -0.47,3.49 -0.94,6.97 -1.41,10.46 0.07,7.09 2,13.7 5.78,19.8 2.18,2.65 4.35,5.28 6.53,7.92 3.78,3.81 8.23,6.49 13.38,8.05 4.96,2.42 10.29,3.52 15.99,3.28 5.7,0.16 11.02,-1 15.93,-3.49 m -208.4,-94.77 c 5.12,-1.62 9.55,-4.36 13.28,-8.21 4.01,-3.59 6.84,-7.83 8.47,-12.71 2.57,-4.7 3.73,-9.76 3.48,-15.17 l -0.02,-2.49 c -0.07,-7.1 -1.99,-13.71 -5.78,-19.81 -2.18,-2.64 -4.36,-5.28 -6.52,-7.92 -5.21,-4.84 -11.32,-8.17 -18.35,-9.99 -3.68,-0.44 -7.36,-0.89 -11.03,-1.34 -5.7,-0.16 -11.01,1 -15.94,3.5 -5.12,1.61 -9.55,4.35 -13.28,8.21 -4.01,3.59 -6.84,7.82 -8.48,12.7 -2.57,4.71 -3.72,9.76 -3.47,15.17 l 0.01,2.5 c 0.07,7.09 2,13.7 5.78,19.8 2.18,2.64 4.36,5.28 6.54,7.92 5.19,4.84 11.31,8.17 18.34,9.99 3.68,0.45 7.35,0.89 11.02,1.34 5.71,0.17 11.03,-0.99 15.95,-3.49 m 93.83,-208.76 c -0.32,-50.68 -83.18,-50.06 -82.86,0.53 0.32,50.67 83.19,50.06 82.86,-0.53 m 218.69,-151.17 c -0.33,-50.68 -83.19,-50.06 -82.87,0.53 0.33,50.67 83.19,50.06 82.87,-0.53 m -123.36,1174.61 c -7.47,0.07 -14.44,1.9 -20.87,5.5 -2.78,2.07 -5.57,4.13 -8.35,6.2 -5.1,4.94 -8.61,10.74 -10.55,17.41 -0.47,3.49 -0.94,6.98 -1.4,10.46 -0.19,5.42 1.03,10.46 3.66,15.13 1.7,4.86 4.59,9.06 8.64,12.6 3.78,3.81 8.24,6.49 13.39,8.04 4.95,2.43 10.28,3.52 15.98,3.28 h 1.31 c 7.48,-0.08 14.45,-1.91 20.88,-5.51 2.78,-2.06 5.57,-4.13 8.35,-6.2 5.1,-4.93 8.62,-10.74 10.54,-17.41 0.48,-3.49 0.95,-6.98 1.41,-10.46 0.19,-5.42 -1.04,-10.46 -3.66,-15.13 -1.71,-4.86 -4.59,-9.06 -8.65,-12.59 -3.77,-3.81 -8.23,-6.49 -13.38,-8.05 -4.96,-2.43 -10.28,-3.52 -15.98,-3.28 l -1.32,0.01 m -239.28,118.22 c 0.32,50.68 83.18,50.06 82.86,-0.52 -0.32,-50.68 -83.18,-50.07 -82.86,0.52 m 347.56,-154.49 c 0.18,29.38 28.1,41.49 51.48,36.64 -4.43,58.3 -9.75,143.83 -14.13,217.54 -2.25,-1.37 -4.69,-2.45 -7.29,-3.24 -4.95,-2.42 -10.29,-3.52 -15.98,-3.28 -5.71,-0.17 -11.03,0.99 -15.95,3.49 -5.12,1.61 -9.55,4.35 -13.28,8.21 l -1.31,1.26 c -5.1,4.93 -8.61,10.74 -10.53,17.41 -0.47,3.49 -0.95,6.98 -1.42,10.47 0.07,7.09 2,13.69 5.78,19.8 2.18,2.64 4.36,5.27 6.54,7.92 3.77,3.8 8.23,6.48 13.37,8.04 4.97,2.43 10.29,3.52 15.99,3.28 5.7,0.17 11.02,-0.99 15.94,-3.49 1.45,-0.45 2.83,-1.02 4.17,-1.66 -2.72,47.32 -4.5,79.94 -4.5,79.94 0,0 -61.52,-55.77 -71.43,-62.57 -9.9,-6.81 -153.85,-155.9 -153.85,-155.9 l -184.42,185.52 c 0,0 -13.67,-149.69 -17.91,-196.46 -4.25,-46.78 -3.34,-213.41 -1.66,-258.35 0.66,-17.71 1.94,-83.39 3.24,-157.86 22.76,3 48.3,-9.66 48.13,-37.79 -0.18,-27.46 -24.6,-39.82 -46.87,-37.37 1.5,-91.8 2.74,-177.56 2.68,-188.24 -0.15,-22.47 0.55,-529.82 2.18,-582.25 0.47,-14.93 0.48,-51.46 0.26,-96.07 4.78,3.97 10.24,6.83 16.45,8.44 3.67,0.44 7.35,0.89 11.02,1.33 5.71,0.17 11.02,-0.99 15.94,-3.48 5.13,-1.62 9.56,-4.36 13.29,-8.22 4.01,-3.58 6.84,-7.82 8.48,-12.7 2.56,-4.71 3.72,-9.76 3.47,-15.17 l -0.01,-1.25 c -0.07,-7.09 -1.99,-13.7 -5.78,-19.8 -2.18,-2.65 -4.36,-5.28 -6.53,-7.92 -5.2,-4.84 -11.31,-8.17 -18.35,-9.99 -3.67,-0.45 -7.35,-0.89 -11.02,-1.34 -5.7,-0.17 -11.02,1 -15.94,3.49 -4.31,1.36 -8.1,3.56 -11.42,6.51 -0.81,-102.38 -2.23,-215.02 -2.23,-215.02 0,0 71.37,52.49 105.12,85.97 14.72,14.61 42.23,45.7 68.57,76.1 -2.2,1.64 -4.39,3.27 -6.6,4.91 -5.1,4.94 -8.61,10.75 -10.55,17.42 -0.47,3.48 -0.93,6.97 -1.4,10.46 -0.19,5.41 1.03,10.45 3.66,15.12 1.7,4.87 4.58,9.06 8.65,12.59 3.77,3.82 8.23,6.5 13.38,8.05 4.95,2.43 10.28,3.53 15.98,3.28 h 1.31 c 7.49,-0.08 14.45,-1.9 20.88,-5.5 2.34,-1.74 4.68,-3.48 7.01,-5.21 8.49,10.02 13.77,16.29 13.77,16.29 l 16.17,-14.07 58.79,-62.15 113.44,-152.37 c 0,0 5.29,207.77 7.49,245.2 1.47,24.75 6.46,196.76 9.19,324.58 -21.1,-0.36 -42.54,12.42 -42.38,38.2 0.18,26.21 22.4,38.66 43.8,37.62 0.43,29.01 0.55,50.65 0.23,60.07 -0.59,17.34 0.78,107.54 2.46,218.45 l -0.4,-0.05 c -7.48,0.07 -14.44,1.91 -20.87,5.51 -2.79,2.06 -5.57,4.13 -8.36,6.2 -4.01,3.58 -6.84,7.82 -8.48,12.7 -2.56,4.7 -3.72,9.76 -3.47,15.17 -0.18,5.42 1.04,10.46 3.66,15.13 1.7,4.86 4.59,9.06 8.65,12.59 l 1.32,1.24 c 5.2,4.84 11.32,8.17 18.36,9.99 3.59,0.44 7.18,0.88 10.78,1.31 2.54,173.9 4.89,366.57 1.66,410.1 -24.53,-9.11 -58.64,2.73 -58.42,35.23"
         style="fill:#f3cc30;fill-opacity:1;fill-rule:nonzero;stroke:none"
         id="path20" /><path
         d="m 6128.33,7715.56 c 3.67,0.45 7.35,0.89 11.03,1.33 7.03,1.83 13.14,5.16 18.35,10 2.16,2.64 4.34,5.27 6.52,7.91 3.79,6.11 5.71,12.71 5.78,19.81 l 0.01,1.24 c 0.25,5.42 -0.91,10.47 -3.47,15.18 -1.64,4.88 -4.47,9.12 -8.48,12.7 -3.73,3.86 -8.16,6.6 -13.28,8.22 -4.93,2.49 -10.24,3.65 -15.95,3.48 -3.67,-0.44 -7.35,-0.88 -11.02,-1.33 -6.21,-1.61 -11.67,-4.47 -16.45,-8.44 -0.1,-18.93 -0.24,-39.29 -0.4,-60.1 3.32,-2.95 7.11,-5.15 11.42,-6.51 4.92,-2.49 10.24,-3.66 15.94,-3.49"
         style="fill:#ffffff;fill-opacity:1;fill-rule:nonzero;stroke:none"
         id="path22" /><path
         d="m 6205.67,7984.03 c -0.32,-50.59 82.54,-51.21 82.87,-0.53 0.32,50.59 -82.54,51.2 -82.87,0.53"
         style="fill:#ffffff;fill-opacity:1;fill-rule:nonzero;stroke:none"
         id="path24" /><path
         d="m 6424.36,7832.86 c -0.33,-50.59 82.53,-51.21 82.86,-0.53 0.32,50.59 -82.54,51.21 -82.86,0.53"
         style="fill:#ffffff;fill-opacity:1;fill-rule:nonzero;stroke:none"
         id="path26" /><path
         d="m 6501.22,8129.41 c -0.16,-25.78 21.28,-38.56 42.38,-38.2 0.61,28.09 1.1,54.03 1.42,75.82 -21.4,1.04 -43.62,-11.41 -43.8,-37.62"
         style="fill:#ffffff;fill-opacity:1;fill-rule:nonzero;stroke:none"
         id="path28" /><path
         d="m 6149.38,8184.42 c -2.17,-2.64 -4.35,-5.27 -6.53,-7.92 -3.78,-6.1 -5.71,-12.71 -5.78,-19.8 l -0.01,-2.5 c -0.25,-5.41 0.9,-10.46 3.47,-15.17 1.64,-4.88 4.47,-9.11 8.48,-12.7 3.73,-3.86 8.16,-6.6 13.28,-8.21 4.93,-2.5 10.24,-3.66 15.94,-3.5 3.67,0.45 7.36,0.9 11.03,1.34 7.03,1.82 13.14,5.15 18.35,9.99 2.17,2.64 4.34,5.28 6.52,7.92 3.79,6.11 5.71,12.71 5.78,19.81 l 0.02,2.49 c 0.25,5.41 -0.91,10.47 -3.47,15.17 -1.64,4.89 -4.47,9.12 -8.48,12.71 -3.73,3.86 -8.17,6.59 -13.28,8.21 -4.92,2.5 -10.24,3.66 -15.95,3.49 -3.67,-0.45 -7.34,-0.89 -11.02,-1.34 -7.03,-1.82 -13.15,-5.15 -18.35,-9.99"
         style="fill:#ffffff;fill-opacity:1;fill-rule:nonzero;stroke:none"
         id="path30" /><path
         d="m 6154.57,8459.77 c -0.32,-50.6 82.53,-51.21 82.85,-0.54 0.33,50.59 -82.53,51.21 -82.85,0.54"
         style="fill:#ffffff;fill-opacity:1;fill-rule:nonzero;stroke:none"
         id="path32" /><path
         d="m 6357.8,8279.19 c -2.17,-2.64 -4.35,-5.27 -6.53,-7.92 -3.78,-6.1 -5.71,-12.71 -5.78,-19.8 0.47,-3.49 0.95,-6.97 1.41,-10.46 1.93,-6.67 5.44,-12.48 10.54,-17.42 l 1.31,-1.25 c 3.73,-3.86 8.15,-6.6 13.28,-8.22 4.92,-2.49 10.24,-3.65 15.95,-3.49 5.69,-0.23 11.02,0.86 15.98,3.29 5.14,1.55 9.6,4.23 13.38,8.04 2.18,2.64 4.36,5.28 6.53,7.92 3.79,6.11 5.72,12.71 5.79,19.8 -0.48,3.49 -0.95,6.98 -1.42,10.47 -1.92,6.67 -5.44,12.47 -10.54,17.41 l -1.31,1.26 c -3.72,3.85 -8.16,6.59 -13.28,8.21 -4.92,2.49 -10.24,3.65 -15.94,3.49 -5.71,0.24 -11.03,-0.86 -15.99,-3.28 -5.14,-1.56 -9.6,-4.24 -13.38,-8.05"
         style="fill:#ffffff;fill-opacity:1;fill-rule:nonzero;stroke:none"
         id="path34" /><path
         d="m 6519.77,8514.04 -1.33,-1.24 c -4.06,-3.53 -6.95,-7.73 -8.65,-12.59 -2.62,-4.67 -3.84,-9.71 -3.66,-15.13 -0.25,-5.41 0.91,-10.47 3.47,-15.17 1.64,-4.88 4.47,-9.12 8.49,-12.7 2.78,-2.07 5.56,-4.14 8.35,-6.2 6.43,-3.6 13.38,-5.44 20.86,-5.51 l 0.41,0.05 c 0.39,25.7 0.79,52.51 1.19,79.79 -3.6,-0.43 -7.19,-0.87 -10.78,-1.31 -7.04,-1.82 -13.16,-5.15 -18.35,-9.99"
         style="fill:#ffffff;fill-opacity:1;fill-rule:nonzero;stroke:none"
         id="path36" /><path
         d="m 6358.03,8771.81 c -0.33,-50.59 82.53,-51.21 82.85,-0.54 0.32,50.6 -82.53,51.21 -82.85,0.54"
         style="fill:#ffffff;fill-opacity:1;fill-rule:nonzero;stroke:none"
         id="path38" /><path
         d="m 6167.94,8880.28 c -2.18,-2.64 -4.36,-5.28 -6.53,-7.91 -3.79,-6.12 -5.72,-12.71 -5.78,-19.81 0.46,-3.49 0.93,-6.97 1.4,-10.46 1.93,-6.67 5.45,-12.48 10.55,-17.42 0.96,-0.72 1.93,-1.44 2.9,-2.16 3.73,-3.86 8.16,-6.59 13.28,-8.21 4.92,-2.49 10.23,-3.66 15.95,-3.49 5.7,-0.24 11.02,0.85 15.97,3.28 5.15,1.55 9.61,4.23 13.39,8.05 2.18,2.64 4.36,5.27 6.54,7.91 3.77,6.11 5.71,12.71 5.78,19.81 -0.47,3.48 -0.95,6.97 -1.42,10.46 -1.92,6.67 -5.44,12.47 -10.55,17.41 -0.96,0.72 -1.93,1.44 -2.9,2.17 -3.73,3.85 -8.15,6.59 -13.28,8.21 -4.92,2.5 -10.23,3.66 -15.94,3.49 -5.7,0.24 -11.03,-0.86 -15.98,-3.28 -5.15,-1.56 -9.61,-4.24 -13.38,-8.05"
         style="fill:#ffffff;fill-opacity:1;fill-rule:nonzero;stroke:none"
         id="path40" /><path
         d="m 6227.44,9124.63 c 0.32,50.59 -82.54,51.21 -82.86,0.53 -0.32,-50.59 82.54,-51.2 82.86,-0.53"
         style="fill:#ffffff;fill-opacity:1;fill-rule:nonzero;stroke:none"
         id="path42" /><path
         d="m 6143.12,8689.59 c 0.17,28.13 -25.37,40.79 -48.13,37.79 0.42,-24.57 0.85,-50.09 1.26,-75.16 22.28,-2.45 46.69,9.91 46.87,37.37"
         style="fill:#ffffff;fill-opacity:1;fill-rule:nonzero;stroke:none"
         id="path44" /><path
         d="m 6333.31,8562.66 c -4.06,-3.53 -6.94,-7.73 -8.65,-12.6 -2.62,-4.66 -3.84,-9.7 -3.66,-15.12 0.46,-3.48 0.94,-6.97 1.41,-10.46 1.93,-6.67 5.44,-12.48 10.54,-17.41 2.78,-2.07 5.57,-4.14 8.35,-6.21 6.43,-3.59 13.4,-5.43 20.88,-5.5 h 1.31 c 5.7,-0.25 11.03,0.85 15.98,3.28 5.15,1.55 9.61,4.23 13.39,8.04 4.06,3.53 6.94,7.73 8.64,12.6 2.63,4.67 3.85,9.71 3.67,15.12 -0.47,3.49 -0.94,6.98 -1.41,10.46 -1.92,6.67 -5.44,12.48 -10.55,17.42 -2.78,2.07 -5.56,4.13 -8.34,6.2 -6.44,3.6 -13.4,5.43 -20.88,5.5 l -1.31,0.01 c -5.71,0.24 -11.03,-0.86 -15.99,-3.29 -5.15,-1.55 -9.6,-4.23 -13.38,-8.04"
         style="fill:#ffffff;fill-opacity:1;fill-rule:nonzero;stroke:none"
         id="path46" /><path
         d="m 6492.14,8970.67 c -0.22,-32.5 33.9,-44.34 58.42,-35.24 -0.23,2.93 -0.46,5.27 -0.74,6.79 -1.58,8.97 -3.76,32.89 -6.2,65.09 -23.38,4.85 -51.3,-7.26 -51.48,-36.64"
         style="fill:#ffffff;fill-opacity:1;fill-rule:nonzero;stroke:none"
         id="path48" /><path
         d="m 6414.54,9018.26 c 4.06,3.53 6.94,7.73 8.65,12.59 2.62,4.67 3.85,9.71 3.67,15.13 -0.47,3.48 -0.94,6.97 -1.42,10.46 -1.92,6.67 -5.44,12.48 -10.54,17.41 -2.78,2.07 -5.56,4.14 -8.35,6.2 -6.43,3.6 -13.4,5.43 -20.88,5.51 h -1.3 c -5.71,0.25 -11.04,-0.85 -15.99,-3.28 -5.15,-1.55 -9.61,-4.23 -13.39,-8.04 -4.05,-3.54 -6.94,-7.74 -8.64,-12.6 -2.63,-4.67 -3.85,-9.71 -3.66,-15.13 0.46,-3.48 0.93,-6.97 1.4,-10.46 1.94,-6.67 5.45,-12.47 10.55,-17.41 2.78,-2.07 5.57,-4.13 8.35,-6.2 6.43,-3.6 13.4,-5.43 20.87,-5.5 l 1.32,-0.01 c 5.7,-0.24 11.02,0.85 15.98,3.28 5.15,1.56 9.61,4.24 13.38,8.05"
         style="fill:#ffffff;fill-opacity:1;fill-rule:nonzero;stroke:none"
         id="path50" /><path
         d="m 6505.41,9298.21 c -5.7,0.24 -11.03,-0.85 -15.99,-3.28 -5.14,-1.56 -9.6,-4.24 -13.38,-8.05 -2.17,-2.64 -4.35,-5.27 -6.53,-7.91 -3.78,-6.11 -5.71,-12.71 -5.78,-19.8 0.47,-3.49 0.95,-6.98 1.42,-10.47 1.92,-6.67 5.44,-12.47 10.53,-17.41 l 1.31,-1.26 c 3.73,-3.86 8.16,-6.6 13.28,-8.21 4.93,-2.5 10.24,-3.66 15.95,-3.49 5.69,-0.24 11.03,0.85 15.98,3.28 2.6,0.79 5.04,1.87 7.29,3.24 -1.45,24.53 -2.8,47.74 -3.97,68.21 -1.34,0.64 -2.72,1.21 -4.17,1.66 -4.92,2.5 -10.24,3.66 -15.94,3.49"
         style="fill:#ffffff;fill-opacity:1;fill-rule:nonzero;stroke:none"
         id="path52" /><path
         d="m 6296.87,7744.44 h -1.31 c -5.71,0.25 -11.04,-0.85 -15.99,-3.28 -5.15,-1.55 -9.61,-4.23 -13.38,-8.04 -4.07,-3.54 -6.95,-7.73 -8.65,-12.6 -2.63,-4.67 -3.85,-9.71 -3.66,-15.12 0.47,-3.49 0.93,-6.98 1.4,-10.46 1.94,-6.67 5.45,-12.48 10.55,-17.42 2.21,-1.64 4.4,-3.27 6.6,-4.91 20.28,23.4 39.82,46.35 52.33,61.12 -2.34,1.73 -4.68,3.47 -7.02,5.21 -6.43,3.59 -13.39,5.43 -20.87,5.5"
         style="fill:#ffffff;fill-opacity:1;fill-rule:nonzero;stroke:none"
         id="path54" /><path
         d="m 6532.91,7936.5 c -4.15,-126.66 -10.01,-253.27 -17.14,-379.81 -55.94,62.13 -108.56,126.38 -157.5,192.96 -5.02,6.83 -14.33,6.38 -19.75,0.37 -66.65,-73.7 -137.5,-144.21 -211.92,-211.87 -0.57,-2.57 -2.67,-4.11 -5.16,-4.67 -3.74,-3.4 -7.47,-6.83 -11.24,-10.21 0.23,8.59 0.54,17.17 0.81,25.75 -0.35,5.65 -0.93,11.29 -1.61,16.93 -0.68,3.88 -1.15,7.79 -1.45,11.7 -1.15,9.36 -2.15,18.74 -2.1,28.18 0.01,1.32 0.43,2.45 1.1,3.38 -0.57,7.65 -0.93,15.3 -1.12,22.95 -0.15,5.68 -0.2,11.36 -0.17,17.04 0.12,50.49 5.84,101.08 3.7,151.58 -1.51,35.19 -6.61,73.76 -1.97,110.16 8.58,474.18 -30.14,949.14 12.59,1422.32 58.62,-59.55 117.24,-119.1 175.76,-178.73 3.54,-3.6 11.91,-4.18 15.5,-0.29 64.68,69.94 133.29,136.78 205.45,200.78 25,-472.59 31.74,-945.63 16.22,-1418.52 m -13.85,1449.83 c -75.98,-66.83 -147.79,-137 -215.57,-210.3 -61.6,62.27 -123.11,124.59 -184.58,186.94 -6.47,6.56 -17.66,1.3 -18.37,-6.28 -27.74,-291.22 -21.97,-583.59 -14.91,-875.49 6.57,-271.13 9.1,-541.92 -0.02,-812.93 -0.93,-0.39 -1.64,-1.14 -1.66,-2.33 -0.16,-12.78 -0.04,-25.57 0.17,-38.37 -0.29,-7.72 -0.56,-15.44 -0.87,-23.17 -0.06,-1.46 0.52,-2.55 1.41,-3.31 0.14,-6.52 0.3,-13.05 0.44,-19.57 0.36,-17.85 0.09,-35.9 2.16,-53.71 -0.24,-9.94 -0.49,-19.88 -0.69,-29.82 -0.16,-8.53 12.29,-13.67 19.34,-7.45 85.37,75.28 165.7,154.57 241.39,237.43 52.84,-71.03 109.53,-139.65 170.26,-205.67 6.58,-7.15 19.25,-1.33 19.71,6.75 27.92,480.39 34.7,961.69 19.6,1442.6 -4.25,135.75 -10.11,271.47 -18.12,407.1 -0.5,8.42 -12.15,14.21 -19.69,7.58"
         style="fill:#4c4c4d;fill-opacity:1;fill-rule:nonzero;stroke:none"
         id="path56" /><path
         d="m 2685.57,7718.04 c -106.85,-11.48 -216.44,-7.53 -323.35,-18.43 -69.98,-7.13 -138.53,-1.72 -208.79,1.7 -65.53,3.19 -129.34,-12.14 -194.66,-5.96 -172.98,16.37 -348.64,-15.11 -522.4,-14.22 -180.92,0.91 -375.55,-11.53 -542.718,-0.56 -4.156,0.27 9.926,-1.41 11.703,-5.17 27.079,-57.36 102.165,-113.11 165.285,-151.3 42.62,-25.78 66.65,-74.18 104.81,-106.19 1.96,-1.64 1.79,-4.68 -0.34,-6.09 L 921.582,7244.66 c -3.105,-2.06 -1.758,-6.9 1.965,-7.04 584.943,-23.21 1171.303,-10.49 1754.693,38.04 13.03,145.01 6.15,292.93 11.58,438.42 0.08,2.34 -1.92,4.22 -4.25,3.96"
         style="fill:#72a3d8;fill-opacity:1;fill-rule:nonzero;stroke:none"
         id="path58" /><path
         d="m 2687.95,7433.2 c -34.05,93.23 -68.12,186.44 -102.18,279.67 -3.92,-0.17 -7.85,-0.33 -11.78,-0.49 37.73,-103.27 75.47,-206.55 113.21,-309.82 0.3,10.21 0.55,20.42 0.75,30.64"
         style="fill:#c93d36;fill-opacity:1;fill-rule:nonzero;stroke:none"
         id="path60" /><path
         d="m 2659.74,7276.06 c -62.11,146.4 -129.53,290.5 -202.03,432.04 -4.12,-0.19 -8.23,-0.37 -12.33,-0.57 72.72,-141.65 140.36,-285.85 202.61,-432.39 3.92,0.31 7.84,0.61 11.75,0.92"
         style="fill:#c93d36;fill-opacity:1;fill-rule:nonzero;stroke:none"
         id="path62" /><path
         d="m 2563.11,7268.46 c -71.16,141.79 -136.59,286.4 -196.14,433.44 -0.94,-0.09 -1.88,-0.17 -2.81,-0.26 -2.95,-0.31 -5.9,-0.56 -8.85,-0.81 59.44,-146.95 124.7,-291.49 195.68,-433.24 4.04,0.3 8.08,0.57 12.12,0.87"
         style="fill:#c93d36;fill-opacity:1;fill-rule:nonzero;stroke:none"
         id="path64" /><path
         d="m 2456.42,7260.85 c -60.54,148.04 -125.98,294.02 -196.25,437.68 -4.22,0.1 -8.43,0.23 -12.65,0.37 70.61,-144 136.34,-290.36 197.11,-438.8 3.93,0.27 7.87,0.49 11.79,0.75"
         style="fill:#c93d36;fill-opacity:1;fill-rule:nonzero;stroke:none"
         id="path66" /><path
         d="m 2329.94,7252.94 c -63.74,149.26 -125.12,299.52 -184.12,450.7 -4.03,0.1 -8.05,0.13 -12.07,0.1 59.06,-151.45 120.51,-301.95 184.32,-451.46 3.95,0.22 7.91,0.43 11.87,0.66"
         style="fill:#c93d36;fill-opacity:1;fill-rule:nonzero;stroke:none"
         id="path68" /><path
         d="m 2203.31,7246.12 c -56.26,152.93 -119.61,303.17 -189.82,450.2 -4.08,-0.16 -8.15,-0.27 -12.24,-0.33 70.42,-147.09 133.91,-297.41 190.3,-450.44 3.92,0.19 7.84,0.38 11.76,0.57"
         style="fill:#c93d36;fill-opacity:1;fill-rule:nonzero;stroke:none"
         id="path70" /><path
         d="m 2070.52,7240.15 c -62.29,157.04 -131.68,311.17 -207.91,461.93 -4.19,0.02 -8.39,0.02 -12.59,0.01 76.53,-150.89 146.15,-305.19 208.62,-462.42 3.96,0.15 7.92,0.32 11.88,0.48"
         style="fill:#c93d36;fill-opacity:1;fill-rule:nonzero;stroke:none"
         id="path72" /><path
         d="m 1959.05,7236.09 c -57.62,158.05 -123.97,312.8 -198.73,463.5 -4.07,-0.2 -8.15,-0.4 -12.22,-0.61 74.94,-150.62 141.41,-305.29 199.13,-463.28 3.94,0.12 7.88,0.26 11.82,0.39"
         style="fill:#ffffff;fill-opacity:1;fill-rule:nonzero;stroke:none"
         id="path74" /><path
         d="m 1841.09,7232.72 c -67.27,157.74 -145.75,310.49 -234.82,456.95 -4.2,-0.28 -8.42,-0.55 -12.63,-0.82 89.29,-146.26 168,-298.83 235.4,-456.43 4.02,0.09 8.03,0.21 12.05,0.3"
         style="fill:#ffffff;fill-opacity:1;fill-rule:nonzero;stroke:none"
         id="path76" /><path
         d="m 1718.72,7230.25 c -65.73,152.87 -134.67,304.32 -206.82,454.25 -4.07,-0.15 -8.15,-0.3 -12.22,-0.43 72.2,-149.86 141.2,-301.23 206.96,-454.03 4.02,0.06 8.05,0.15 12.08,0.21"
         style="fill:#ffffff;fill-opacity:1;fill-rule:nonzero;stroke:none"
         id="path78" /><path
         d="m 1388.94,7683.07 c 79.15,-147.39 150.22,-299.02 212.84,-454.2 4.01,0.03 8.01,0.09 12.02,0.12 -62.45,155.13 -133.25,306.77 -212.14,454.17 -4.23,-0.02 -8.48,-0.06 -12.72,-0.09"
         style="fill:#ffffff;fill-opacity:1;fill-rule:nonzero;stroke:none"
         id="path80" /><path
         d="m 1280.66,7681.51 c 74.96,-151.01 149.92,-302.01 224.88,-453.02 4.16,0.01 8.33,0.03 12.49,0.03 -74.99,151.08 -149.98,302.16 -224.98,453.24 -4.12,-0.08 -8.26,-0.16 -12.39,-0.25"
         style="fill:#ffffff;fill-opacity:1;fill-rule:nonzero;stroke:none"
         id="path82" /><path
         d="m 1163.29,7679.14 c 90.02,-146.5 173.77,-296.79 251.04,-450.42 4.2,-0.02 8.4,-0.05 12.6,-0.07 -77.11,153.74 -160.74,304.12 -250.61,450.73 -4.34,-0.08 -8.69,-0.17 -13.03,-0.24"
         style="fill:#ffffff;fill-opacity:1;fill-rule:nonzero;stroke:none"
         id="path84" /><path
         d="m 1040.86,7678.12 c 79.81,-150.37 161.47,-299.76 244.94,-448.14 4.33,-0.06 8.67,-0.11 13,-0.17 -83.55,148.42 -165.32,297.85 -245.21,448.27 -4.26,0 -8.49,0.03 -12.73,0.04"
         style="fill:#ffffff;fill-opacity:1;fill-rule:nonzero;stroke:none"
         id="path86" /><path
         d="m 936.352,7680.44 c 13.296,-28.56 26.593,-57.12 39.894,-85.69 6.457,-5.57 13.141,-11.02 19.942,-16.36 l -47.27,101.55 c -4.199,0.16 -8.395,0.32 -12.566,0.5"
         style="fill:#ffffff;fill-opacity:1;fill-rule:nonzero;stroke:none"
         id="path88" /><path
         d="m 1087.85,7355.03 c 18.99,-40.8 37.99,-81.6 56.98,-122.4 4.15,-0.1 8.3,-0.16 12.45,-0.26 l -60,128.88 -9.43,-6.22"
         style="fill:#ffffff;fill-opacity:1;fill-rule:nonzero;stroke:none"
         id="path90" /><path
         d="m 997.457,7295.43 c 9.473,-19.85 19.093,-39.64 28.783,-59.39 4.23,-0.14 8.46,-0.3 12.69,-0.43 -10.8,21.95 -21.51,43.96 -32.05,66.04 l -9.423,-6.22"
         style="fill:#ffffff;fill-opacity:1;fill-rule:nonzero;stroke:none"
         id="path92" /><path
         d="m 1245.51,7674.48 c 118.35,4.42 236.71,8.4 355.1,11.3 234.49,5.74 469.06,7.98 703.61,7 122.73,-0.51 246.81,-3.6 367.08,24.31 15,-147.66 13.92,-296.34 -2.77,-443.8 -224.7,-5.74 -449.28,-15.27 -673.95,-21.8 -233.07,-6.78 -466.2,-11.24 -699.35,-13.37 -121.86,-1.12 -243.73,-1.55 -365.589,-1.42 81.269,69.13 169.209,129.88 262.569,181.64 6.61,3.67 5.23,12.62 -0.35,16.3 -101.93,67.03 -194.782,146.51 -277.024,236.48 110.154,-4.59 220.574,-0.75 330.674,3.36 z m -360.565,0.46 c 83.977,-94.28 179.645,-177.4 284.345,-247.85 -97,-54.96 -187.958,-119.73 -271.778,-193.28 -6.449,-5.66 -0.598,-15.96 7.019,-15.97 466.309,-0.81 932.689,7.39 1398.629,25.84 82.85,3.27 165.68,7.32 248.45,12.25 44.43,-1.9 88.86,0.26 132.77,7.48 2.18,0.36 4.28,3.3 3.99,5.49 -0.48,3.71 -1.04,7.41 -1.58,11.1 l 0.85,1.08 c 16.98,148.79 17.46,299.06 1.72,448.02 -0.68,6.37 -5.93,10.6 -12.37,9.01 -112.33,-27.77 -228.31,-26.65 -343.24,-25.93 -117.28,0.74 -234.56,0.57 -351.84,-0.47 -232.02,-2.07 -464.01,-7.55 -695.88,-16.3 -131.52,-4.97 -262.91,-9.79 -394.467,-3.49 -9.25,0.44 -11.829,-11.13 -6.618,-16.98"
         style="fill:#4c4c4d;fill-opacity:1;fill-rule:nonzero;stroke:none"
         id="path94" /><path
         d="m 1245.51,7674.48 c 118.35,4.42 236.71,8.4 355.1,11.3 234.49,5.74 469.06,7.98 703.61,7 122.73,-0.51 246.81,-3.6 367.08,24.31 15,-147.66 13.92,-296.34 -2.77,-443.8 -224.7,-5.74 -449.28,-15.27 -673.95,-21.8 -233.07,-6.78 -466.2,-11.24 -699.35,-13.37 -121.86,-1.12 -243.73,-1.55 -365.589,-1.42 81.269,69.13 169.209,129.88 262.569,181.64 6.61,3.67 5.23,12.62 -0.35,16.3 -101.93,67.03 -194.782,146.51 -277.024,236.48 110.154,-4.59 220.574,-0.75 330.674,3.36 z m -360.565,0.46 c 83.977,-94.28 179.645,-177.4 284.345,-247.85 -97,-54.96 -187.958,-119.73 -271.778,-193.28 -6.449,-5.66 -0.598,-15.96 7.019,-15.97 466.309,-0.81 932.689,7.39 1398.629,25.84 82.85,3.27 165.68,7.32 248.45,12.25 44.43,-1.9 88.86,0.26 132.77,7.48 2.18,0.36 4.28,3.3 3.99,5.49 -0.48,3.71 -1.04,7.41 -1.58,11.1 l 0.85,1.08 c 16.98,148.79 17.46,299.06 1.72,448.02 -0.68,6.37 -5.93,10.6 -12.37,9.01 -112.33,-27.77 -228.31,-26.65 -343.24,-25.93 -117.28,0.74 -234.56,0.57 -351.84,-0.47 -232.02,-2.07 -464.01,-7.55 -695.88,-16.3 -131.52,-4.97 -262.91,-9.79 -394.467,-3.49 -9.25,0.44 -11.829,-11.13 -6.618,-16.98"
         style="fill:#4c4c4d;fill-opacity:1;fill-rule:nonzero;stroke:none"
         id="path96" /><path
         d="m 1245.51,7674.48 c 118.35,4.42 236.71,8.4 355.1,11.3 234.49,5.74 469.06,7.98 703.61,7 122.73,-0.51 246.81,-3.6 367.08,24.31 15,-147.66 13.92,-296.34 -2.77,-443.8 -224.7,-5.74 -449.28,-15.27 -673.95,-21.8 -233.07,-6.78 -466.2,-11.24 -699.35,-13.37 -121.86,-1.12 -243.73,-1.55 -365.589,-1.42 81.269,69.13 169.209,129.88 262.569,181.64 6.61,3.67 5.23,12.62 -0.35,16.3 -101.93,67.03 -194.782,146.51 -277.024,236.48 110.154,-4.59 220.574,-0.75 330.674,3.36 z m -360.565,0.46 c 83.977,-94.28 179.645,-177.4 284.345,-247.85 -97,-54.96 -187.958,-119.73 -271.778,-193.28 -6.449,-5.66 -0.598,-15.96 7.019,-15.97 466.309,-0.81 932.689,7.39 1398.629,25.84 82.85,3.27 165.68,7.32 248.45,12.25 44.43,-1.9 88.86,0.26 132.77,7.48 2.18,0.36 4.28,3.3 3.99,5.49 -0.48,3.71 -1.04,7.41 -1.58,11.1 l 0.85,1.08 c 16.98,148.79 17.46,299.06 1.72,448.02 -0.68,6.37 -5.93,10.6 -12.37,9.01 -112.33,-27.77 -228.31,-26.65 -343.24,-25.93 -117.28,0.74 -234.56,0.57 -351.84,-0.47 -232.02,-2.07 -464.01,-7.55 -695.88,-16.3 -131.52,-4.97 -262.91,-9.79 -394.467,-3.49 -9.25,0.44 -11.829,-11.13 -6.618,-16.98"
         style="fill:#4c4c4d;fill-opacity:1;fill-rule:nonzero;stroke:none"
         id="path98" /><path
         d="m 9198.37,4818.92 c 0,0 132.08,16.96 233.82,23.06 101.75,6.1 653.21,26.64 716.41,32.21 63.3,5.56 484.2,19.85 484.2,19.85 l 138.2,7 267.1,-272.2 -277,-190.32 c 0,0 -1114.38,-88.07 -1197.14,-87.61 -82.78,0.45 -363.86,-19.54 -363.86,-19.54 0,0 -20.15,467.55 -1.73,487.55"
         style="fill:#e26d64;fill-opacity:1;fill-rule:nonzero;stroke:none"
         id="path100" /><path
         d="m 10736.7,4668.96 c 0,-1.63 0.1,-3.26 0.2,-4.88 0.4,-13.98 1,-27.97 1.6,-41.94 0.8,-50.09 3.6,-100.05 10.1,-149.77 0.9,-9.8 1.8,-19.6 2.8,-29.39 0.1,-1.73 0.3,-3.47 0.5,-5.2 6,0.48 9.2,0.74 9.2,0.74 l 277,190.32 -187.1,190.75 c -1.3,-0.86 -2.4,-1.78 -3.5,-2.82 v 0 c -0.3,0.96 -0.5,1.93 -0.7,2.89 -0.7,2.94 -1.9,5.43 -3.3,7.57 l -5.2,5.24 c -2.9,2.01 -6.2,3.3 -9.6,3.83 -0.9,2.91 -1.8,5.8 -2.7,8.7 l -55,56.04 -38.6,-1.96 c -3.1,-76.78 -1.7,-153.59 4.3,-230.12"
         style="fill:#efb4b1;fill-opacity:1;fill-rule:nonzero;stroke:none"
         id="path102" /><path
         d="m 9333.65,4834.01 c -72.4,-7.02 -135.28,-15.09 -135.28,-15.09 -15.34,-16.65 -3.94,-343.55 0.31,-452.51 2.37,-11.57 4.91,-23.1 7.64,-34.6 17.81,1.24 72.01,4.99 134.14,8.84 -2.09,135.31 -4.17,270.61 -6.26,405.91 -0.44,28.44 1.49,58.59 -0.55,87.45"
         style="fill:#efb4b1;fill-opacity:1;fill-rule:nonzero;stroke:none"
         id="path104" /><path
         d="m 10822.5,4489.43 c -23.1,-15.28 -46.1,-33.87 -72.5,-45.43 -28.1,-12.28 -63.9,-11.65 -94.7,-14.32 -30.8,-2.67 -61.6,-5.34 -92.4,-7.89 -63,-5.23 -126.1,-10.39 -189.1,-15.42 -250.7,-20 -501.7,-37.76 -753.1,-48.31 -136.94,-5.75 -273.96,-9.29 -410.97,-10 -2.1,40.1 -3.67,80.23 -4.71,120.38 0.67,0.74 1.06,1.71 0.98,2.91 -0.56,8.44 -1.04,16.88 -1.55,25.32 -2.12,108.62 -0.4,217.35 5.2,326.02 258.27,17.36 516.66,32.6 775.29,44.43 131.96,6.03 263.86,11.25 395.86,15.68 67.4,2.27 134.8,4.33 202.2,6.17 30.9,0.86 61.8,1.67 92.7,2.43 14.1,0.35 28.1,0.69 42.1,1.01 18.8,0.45 41.8,4.2 57.1,-6 12.6,-8.39 22.8,-20.76 33.3,-30.78 11.4,-10.86 22.7,-21.79 33.9,-32.8 21.8,-21.42 43.3,-43.11 64.3,-65.05 41.7,-43.46 81.8,-87.96 120.4,-133.21 -46.6,-30.73 -93.1,-61.5 -139.7,-92.31 -21.5,-14.28 -43.1,-28.55 -64.6,-42.83 m 229.1,138.58 c -72.7,84.93 -151,166.61 -234.5,244.78 -14.8,13.94 -29,32.35 -53.2,35.86 -28.1,4.09 -60.4,-0.24 -88.9,-0.97 -67.4,-1.73 -134.8,-3.68 -202.2,-5.82 -272.4,-8.66 -544.71,-20.6 -816.81,-35.87 -154.29,-8.66 -308.53,-18.23 -462.63,-29.3 -5.36,-0.38 -8.82,-3.69 -9.06,-7.91 -4.58,-80.38 -5.21,-161.04 -0.55,-241.36 -0.71,-82.77 1.18,-165.5 5.66,-248.17 0.26,-4.64 5.03,-7.91 10.69,-7.88 255.66,1.08 511.29,12.29 766.43,28.67 126.27,8.11 252.37,17.41 378.47,27.28 64.5,5.05 128.9,10.27 193.4,15.54 61.4,5.03 125,6.53 185.8,15.56 28.1,4.18 49.4,15.88 71.4,30.25 28.2,18.43 56.1,37.03 84.2,55.55 56.1,37.04 112.2,74.09 168.2,111.22 4.6,3.06 7.3,8.18 3.6,12.57"
         style="fill:#4c4c4d;fill-opacity:1;fill-rule:nonzero;stroke:none"
         id="path106" /><path
         d="m 9234.26,4109.25 c 0,0 103.15,26.37 177.3,32.46 74.16,6.07 740.04,17.76 740.04,17.76 0,0 683.3,30.76 695.9,28.75 12.5,-2.01 222.5,-193.52 242.9,-223.47 20.5,-29.95 -73,-143.48 -73,-143.48 L 10907,3697.43 c 0,0 -814.4,-35.34 -913.93,-49.04 -99.5,-13.7 -475.25,-48.36 -511.75,-49.86 -36.51,-1.5 -174.85,-7.17 -174.85,-7.17 0,0 128.99,139.99 172.07,168.7 43.08,28.71 125.08,93.65 125.08,93.65 l 32.76,27.91 c 0,0 -142.67,71.49 -166.75,95.52 -24.07,24.03 -228.23,122.14 -235.37,132.11"
         style="fill:#72a3d8;fill-opacity:1;fill-rule:nonzero;stroke:none"
         id="path108" /><path
         d="m 10917.1,4131.08 c -50.4,-146.65 -100.9,-293.3 -151.3,-439.95 5.6,0.26 11.1,0.51 16.4,0.74 49.1,142.73 98.2,285.44 147.3,428.17 -4.2,3.77 -8.3,7.45 -12.4,11.04"
         style="fill:#c3e2ef;fill-opacity:1;fill-rule:nonzero;stroke:none"
         id="path110" /><path
         d="m 11006.4,4049.43 c -41.5,-117.7 -83,-235.4 -124.5,-353.1 6.8,0.3 12.3,0.54 16.4,0.72 40.1,113.63 80.2,227.27 120.3,340.9 -4,3.78 -8,7.61 -12.2,11.48"
         style="fill:#c3e2ef;fill-opacity:1;fill-rule:nonzero;stroke:none"
         id="path112" /><path
         d="m 10787,4186.62 c -57,-169.69 -119.4,-337.49 -187.1,-503.17 5.6,0.27 11.3,0.53 16.8,0.8 67.6,165.61 129.8,333.37 186.6,502.96 -5,-0.18 -10.5,-0.37 -16.3,-0.59"
         style="fill:#c3e2ef;fill-opacity:1;fill-rule:nonzero;stroke:none"
         id="path114" /><path
         d="m 10652,4181.27 c -72.4,-173.39 -154.2,-342.73 -245.1,-507.2 6,0.3 12.1,0.6 18.1,0.9 90.4,164.43 171.9,333.7 243.9,507 -5.5,-0.23 -11.2,-0.47 -16.9,-0.7"
         style="fill:#c3e2ef;fill-opacity:1;fill-rule:nonzero;stroke:none"
         id="path116" /><path
         d="m 10500.4,4174.84 c -76.9,-169.29 -153.8,-338.59 -230.7,-507.89 5.8,0.32 11.5,0.62 17.3,0.93 76.9,169.23 153.8,338.47 230.6,507.71 -5.7,-0.25 -11.4,-0.5 -17.2,-0.75"
         style="fill:#c3e2ef;fill-opacity:1;fill-rule:nonzero;stroke:none"
         id="path118" /><path
         d="m 10366.6,4169.01 c -86,-170.46 -172.1,-340.91 -258.1,-511.37 5.8,0.36 11.7,0.74 17.8,1.11 86,170.35 171.9,340.69 257.9,511.04 -5.9,-0.26 -11.8,-0.51 -17.6,-0.78"
         style="fill:#c3e2ef;fill-opacity:1;fill-rule:nonzero;stroke:none"
         id="path120" /><path
         d="m 10224.8,4162.75 c -79.8,-175.12 -165,-347.69 -255.69,-517.43 6.87,0.83 13.14,1.62 18.7,2.36 90.09,169.23 174.89,341.27 254.19,515.84 -5.9,-0.27 -11.7,-0.52 -17.2,-0.77"
         style="fill:#c3e2ef;fill-opacity:1;fill-rule:nonzero;stroke:none"
         id="path122" /><path
         d="m 10103.6,4158.61 c -96.3,-172.16 -185.47,-348.22 -267.34,-527.69 5.98,0.6 11.88,1.2 17.71,1.8 81.94,178.97 171.13,354.54 267.43,526.22 -5.3,-0.1 -11.2,-0.21 -17.8,-0.33"
         style="fill:#c3e2ef;fill-opacity:1;fill-rule:nonzero;stroke:none"
         id="path124" /><path
         d="m 9943.99,4155.6 c -82.45,-184.83 -194.29,-355.61 -275.3,-540.95 5.7,0.54 11.47,1.07 17.26,1.62 81.51,184.58 193.42,354.9 274.94,539.65 -5.56,-0.11 -11.19,-0.22 -16.9,-0.32"
         style="fill:#c3e2ef;fill-opacity:1;fill-rule:nonzero;stroke:none"
         id="path126" /><path
         d="m 9815.57,4153 c -98.23,-182.63 -194.47,-366.31 -288.67,-551.05 5.63,0.47 11.68,0.99 18.07,1.54 94.07,184.33 190.19,367.63 288.27,549.88 -5.88,-0.13 -11.77,-0.25 -17.67,-0.37"
         style="fill:#c3e2ef;fill-opacity:1;fill-rule:nonzero;stroke:none"
         id="path128" /><path
         d="m 9493.23,3770.17 c -27.09,-57.46 -52.85,-115.48 -76.55,-174.29 5.72,0.23 11.32,0.46 16.74,0.68 26.35,64.95 55.22,128.94 85.58,192.28 -8.93,-6.61 -17.68,-12.97 -25.77,-18.67"
         style="fill:#c3e2ef;fill-opacity:1;fill-rule:nonzero;stroke:none"
         id="path130" /><path
         d="m 9686.2,4150.18 c -39.99,-77.1 -80.71,-154.2 -120.21,-231.94 4.6,-2.47 9.11,-4.87 13.51,-7.2 40.82,80.29 82.97,159.91 124.23,239.54 -5.87,-0.13 -11.71,-0.27 -17.53,-0.4"
         style="fill:#c3e2ef;fill-opacity:1;fill-rule:nonzero;stroke:none"
         id="path132" /><path
         d="m 9555.67,4146.97 c -27.79,-56.76 -57.34,-112.63 -88.6,-167.55 1,-0.82 1.87,-1.58 2.56,-2.28 2.21,-2.2 5.44,-4.81 9.44,-7.73 33.26,58.3 64.58,117.66 93.93,178.02 -5.88,-0.15 -11.65,-0.31 -17.33,-0.46"
         style="fill:#c3e2ef;fill-opacity:1;fill-rule:nonzero;stroke:none"
         id="path134" /><path
         d="m 9411.56,4141.71 c -4.51,-0.37 -9.13,-0.82 -13.83,-1.33 -21.15,-28.59 -41.9,-57.47 -62.21,-86.64 4.52,-2.37 9.09,-4.76 13.66,-7.15 22.45,32.21 45.39,64.08 68.87,95.57 -2.5,-0.16 -4.67,-0.3 -6.49,-0.45"
         style="fill:#c3e2ef;fill-opacity:1;fill-rule:nonzero;stroke:none"
         id="path136" /><path
         d="m 11062.9,3897.73 c -19.5,-22.65 -39,-45.31 -58.5,-67.95 -17.6,-20.4 -35.2,-40.77 -52.7,-61.17 -15.9,-18.35 -34.3,-50.15 -58.8,-60.47 -17.6,-7.46 -44.1,-6.88 -67.5,-6.31 -9,0.22 -17.6,0.44 -25,0.2 -31.9,-1.01 -63.8,-2.11 -95.7,-3.33 -63.7,-2.45 -127.4,-5.29 -191.1,-8.54 -125.7,-6.38 -251.4,-14.3 -376.9,-23.76 -140.36,-10.58 -280.4,-23.75 -420.48,-37.21 -132.2,-12.7 -264.76,-23.78 -397.68,-23.37 99.27,92.28 205.56,178.86 318.53,258.85 6.98,4.94 7,12.65 -0.69,16.95 -131.61,73.4 -260.68,150.01 -387.12,229.69 63.71,8.69 127.79,14.78 192.06,18.79 205.53,4.26 411.34,15.09 616.58,22.93 250.5,9.55 501.3,23.18 751.9,29.33 30.9,0.76 55.3,-3.09 77.9,-22.14 23,-19.44 42.2,-42.86 62.7,-64.26 39.7,-41.58 79.4,-83.16 119.1,-124.73 10.3,-10.81 21,-18.12 20.4,-32.63 -0.6,-15.84 -16,-28.19 -27,-40.87 m 47.8,61.86 c -16.6,23.43 -41.6,44.27 -61.8,65.41 -41.7,43.49 -83,87.2 -125,130.45 -13.7,14.09 -28,28.49 -47.2,37.25 -22,10.03 -47.2,10.23 -71.7,9.4 -65,-2.23 -130,-5.26 -195,-7.9 -134,-5.43 -268,-10.87 -402.1,-16.3 -150.8,-6.11 -301.54,-12.46 -452.32,-18.72 -71.12,-2.96 -142.35,-5.7 -213.56,-8.96 -107.77,1.18 -215.02,-7.61 -321.51,-23.44 -8.43,-1.25 -16.18,-11.26 -7.36,-16.87 130.15,-82.64 263.11,-162.01 398.71,-238.06 -116.45,-83.19 -226.1,-172.91 -328.02,-269.04 -7.14,-6.73 -0.96,-16.46 8.93,-16.61 266.97,-4.2 533.97,35.69 799.63,56.31 133.8,10.39 267.8,19.03 401.9,25.93 67.1,3.45 134.1,6.45 201.2,9.03 30.2,1.15 60.4,2.24 90.6,3.24 32.7,1.09 68.1,-1.17 100.4,3.95 22,3.49 34.6,14.4 47.8,29.24 21.9,24.62 42.9,49.88 64.4,74.8 17.5,20.4 35.1,40.8 52.6,61.2 19.6,22.77 42.6,45.11 59.4,69.41 9.4,13.55 9.3,27.04 0,40.28"
         style="fill:#4c4c4d;fill-opacity:1;fill-rule:nonzero;stroke:none"
         id="path138" /><path
         d="m 9064.64,5535.33 c 0,0 835.08,35.02 875.69,35.93 40.63,0.92 705.17,5.82 741.37,15.44 36.2,9.62 328.6,47.31 328.6,47.31 0,0 -121.4,-120.13 -138.9,-124.92 -17.6,-4.78 -171.2,-102.84 -171.2,-102.84 l 215.1,-189.41 118.2,-89.38 c 0,0 -90.8,-9.82 -114.3,-4.7 -23.5,5.14 -177.1,11.63 -236.8,0.46 -59.6,-11.17 -1114.17,-45.72 -1114.17,-45.72 l -512.04,-26.11 -17.61,-10.33 c 0,0 6.25,457.62 26.06,494.27"
         style="fill:#00b4ab;fill-opacity:1;fill-rule:nonzero;stroke:none"
         id="path140" /><path
         d="m 10832.8,5138.13 c -61.6,5.75 -122.7,2.84 -184.1,-3.59 -127.9,-13.41 -255.3,-26.98 -383.9,-33.48 -260.2,-13.14 -520.89,-10.53 -781.24,-19.45 -144.44,-4.95 -288.79,-13.63 -432.39,-30.33 -6.14,161.37 -3.31,322.89 8.46,483.95 126.46,-1.95 253.26,4.12 379.68,8.01 128.42,3.97 256.84,7.88 385.26,11.96 252.23,7.98 504.83,12.75 756.93,25.54 133.2,6.77 266.1,18.03 398.6,33.04 -88.1,-78.27 -183.4,-147.81 -284.9,-207.64 -4.6,-2.69 -5.4,-10.12 -1.2,-13.55 106.8,-86.72 213.5,-173.59 320.3,-260.43 -60.2,-9.79 -121.2,0.34 -181.5,5.97 m 209.4,-4.38 c -109.2,88.02 -218.4,176 -327.5,264.12 106.3,63.86 205.8,137.99 297.3,221.61 5.4,4.92 0.5,15.27 -6.7,14.42 -252.4,-29.48 -505.6,-39.06 -759.4,-47.07 -254.27,-8.02 -508.5,-16.04 -762.73,-24.27 -91.44,-2.96 -183.16,-4.77 -274.71,-8.65 -26.83,2.29 -53.9,2.39 -80.8,2.58 -20.94,0.13 -47.87,4.1 -68.92,-2.14 -4.3,4.47 -14.73,2.11 -15.38,-6.35 -13.02,-168.69 -16.29,-337.98 -9.79,-507.04 0.18,-4.58 4.51,-9.16 9.33,-8.6 261.49,30.55 524.89,34.03 787.83,37.83 263.27,3.8 525.37,11.63 787.07,41.75 72.8,8.37 145.2,13.99 218.3,6.9 67.7,-6.57 135.4,-17.25 202.6,-1.05 6.7,1.62 8.9,11.64 3.5,15.96"
         style="fill:#4c4c4d;fill-opacity:1;fill-rule:nonzero;stroke:none"
         id="path142" /><path
         d="m 9205.92,5461.87 c -20.9,-0.86 -19.6,-33.33 1.33,-32.47 20.89,0.85 19.59,33.33 -1.33,32.47"
         style="fill:#fbe999;fill-opacity:1;fill-rule:nonzero;stroke:none"
         id="path144" /><path
         d="m 9502.1,5444.2 c -20.9,-0.85 -19.6,-33.33 1.33,-32.47 20.9,0.86 19.6,33.33 -1.33,32.47"
         style="fill:#fbe999;fill-opacity:1;fill-rule:nonzero;stroke:none"
         id="path146" /><path
         d="m 9342.02,5315.66 c -20.89,-0.86 -19.59,-33.34 1.34,-32.48 20.89,0.86 19.59,33.33 -1.34,32.48"
         style="fill:#fbe999;fill-opacity:1;fill-rule:nonzero;stroke:none"
         id="path148" /><path
         d="m 9176.18,5170.62 -1.68,-0.07 c -20.9,-0.86 -19.6,-33.33 1.33,-32.47 l 1.68,0.06 c 20.9,0.86 19.6,33.33 -1.33,32.48"
         style="fill:#fbe999;fill-opacity:1;fill-rule:nonzero;stroke:none"
         id="path150" /><path
         d="m 9567.43,5173.12 c -8.78,-0.76 -15.95,-7.81 -15.56,-16.91 l 0.1,-2.7 c 0.35,-8.5 8.15,-16.32 16.91,-15.57 8.78,0.75 15.93,7.79 15.56,16.9 l -0.1,2.71 c -0.36,8.49 -8.16,16.32 -16.91,15.57"
         style="fill:#fbe999;fill-opacity:1;fill-rule:nonzero;stroke:none"
         id="path152" /><path
         d="m 9750.18,5516.73 -1.68,-0.07 c -20.9,-0.86 -19.6,-33.33 1.32,-32.48 l 1.68,0.07 c 20.9,0.86 19.6,33.34 -1.32,32.48"
         style="fill:#fbe999;fill-opacity:1;fill-rule:nonzero;stroke:none"
         id="path154" /><path
         d="m 9663.59,5339.7 c -8.78,-0.76 -15.93,-7.81 -15.56,-16.91 l 0.1,-2.7 c 0.36,-8.5 8.16,-16.33 16.91,-15.57 8.78,0.75 15.95,7.79 15.58,16.9 l -0.12,2.7 c -0.35,8.5 -8.15,16.33 -16.91,15.58"
         style="fill:#fbe999;fill-opacity:1;fill-rule:nonzero;stroke:none"
         id="path156" /><path
         d="m 9845.49,5200.79 c -20.9,-0.86 -19.6,-33.33 1.33,-32.48 20.89,0.86 19.6,33.33 -1.33,32.48"
         style="fill:#fbe999;fill-opacity:1;fill-rule:nonzero;stroke:none"
         id="path158" /><path
         d="m 9965.12,5390.01 -2.71,-0.11 c -8.49,-0.35 -16.33,-8.14 -15.56,-16.9 0.75,-8.78 7.79,-15.94 16.89,-15.57 l 2.71,0.11 c 8.49,0.35 16.32,8.15 15.57,16.9 -0.75,8.78 -7.8,15.95 -16.9,15.57"
         style="fill:#fbe999;fill-opacity:1;fill-rule:nonzero;stroke:none"
         id="path160" /><path
         d="m 10138.8,5516.41 c -20.9,-0.86 -19.6,-33.33 1.4,-32.47 20.9,0.85 19.6,33.33 -1.4,32.47"
         style="fill:#fbe999;fill-opacity:1;fill-rule:nonzero;stroke:none"
         id="path162" /><path
         d="m 10243.5,5344.51 c -20.9,-0.86 -19.6,-33.33 1.3,-32.47 20.9,0.86 19.6,33.33 -1.3,32.47"
         style="fill:#fbe999;fill-opacity:1;fill-rule:nonzero;stroke:none"
         id="path164" /><path
         d="m 10082.9,5226.8 c -20.8,-0.86 -19.6,-33.33 1.4,-32.47 20.9,0.85 19.6,33.33 -1.4,32.47"
         style="fill:#fbe999;fill-opacity:1;fill-rule:nonzero;stroke:none"
         id="path166" /><path
         d="m 10420.4,5525.24 c -20.9,-0.85 -19.6,-33.33 1.3,-32.47 20.9,0.86 19.6,33.33 -1.3,32.47"
         style="fill:#fbe999;fill-opacity:1;fill-rule:nonzero;stroke:none"
         id="path168" /><path
         d="m 10691.5,5522.82 c -20.9,-0.86 -19.6,-33.33 1.4,-32.47 20.9,0.85 19.6,33.33 -1.4,32.47"
         style="fill:#fbe999;fill-opacity:1;fill-rule:nonzero;stroke:none"
         id="path170" /><path
         d="m 10469.8,5378.19 c -8.8,-0.75 -16,-7.8 -15.6,-16.9 l 0.1,-2.71 c 0.4,-8.49 8.2,-16.31 16.9,-15.56 8.8,0.75 16,7.79 15.6,16.9 l -0.1,2.71 c -0.4,8.48 -8.2,16.32 -16.9,15.56"
         style="fill:#fbe999;fill-opacity:1;fill-rule:nonzero;stroke:none"
         id="path172" /><path
         d="m 10688.2,5273.31 c -20.9,-0.86 -19.6,-33.33 1.3,-32.47 20.9,0.86 19.6,33.33 -1.3,32.47"
         style="fill:#fbe999;fill-opacity:1;fill-rule:nonzero;stroke:none"
         id="path174" /><path
         d="m 10856.8,5193.5 c -20.9,-0.86 -19.6,-33.34 1.4,-32.48 20.9,0.85 19.6,33.33 -1.4,32.48"
         style="fill:#fbe999;fill-opacity:1;fill-rule:nonzero;stroke:none"
         id="path176" /><path
         d="m 10392.2,5220.51 c -8.8,-0.75 -15.9,-7.8 -15.6,-16.91 l 0.1,-2.7 c 0.4,-8.49 8.2,-16.32 17,-15.57 8.7,0.75 15.9,7.79 15.5,16.91 l -0.1,2.7 c -0.3,8.49 -8.1,16.32 -16.9,15.57"
         style="fill:#fbe999;fill-opacity:1;fill-rule:nonzero;stroke:none"
         id="path178" /><path
         d="m 2037.3,3329.56 c 61.28,-548.28 375.29,-488.04 690.99,-481.33 2304.02,48.99 4629.15,3.24 6905.74,339.19 192.8,28.46 359.57,22.8 459.47,146.86 95.8,119.08 30.1,667.25 25.3,816.46 -44.5,1389.3 -145.13,2858.17 -294.87,4240.41 -11.91,109.97 -32.95,234.33 -130.19,295.39 -66.39,41.69 -151.7,42.1 -231.56,41.04 -1928.23,-25.66 -3856.2,-76.5 -5783.19,-152.49 -568.61,-22.43 -1411.34,12.01 -1671.9,-135.14 -72.84,-41.14 -171.28,-162.18 -151.19,-1030.22 20.11,-868.04 136.4,-3677.56 181.4,-4080.17"
         style="fill:#ffffff;fill-opacity:1;fill-rule:nonzero;stroke:none"
         id="path180" /><path
         d="m 9634.03,3187.42 c 192.8,28.46 359.57,22.8 459.47,146.86 95.8,119.07 30.1,667.25 25.3,816.47 -44.5,1389.29 -145.13,2858.16 -294.88,4240.4 -11.9,109.97 -32.94,234.33 -130.18,295.39 -66.38,41.69 -151.7,42.11 -231.56,41.04 -1269.62,-16.89 -2305.1,-37.92 -3574.29,-76.65 l 235.5,-5739.84 c 1255.08,33.56 2273.07,93.7 3510.64,276.33"
         style="fill:#f4f4ed;fill-opacity:1;fill-rule:nonzero;stroke:none"
         id="path182" /><path
         d="m 2014.93,3328.64 c 18.89,-156.11 58.53,-333.46 194.86,-430.17 107.65,-76.37 245.48,-79.97 372.51,-77.15 539.88,12.02 1079.77,20.46 1619.76,27.53 1178.56,15.44 2357.97,32.42 3534.14,114.96 586.18,41.13 1171.39,98.59 1753.37,180.31 125.8,17.67 253.8,29.3 378.74,52.17 84.1,15.39 168.49,42.87 228.19,107.35 86.7,93.61 72.6,266.54 70.8,383.75 -2.4,152.45 -19.1,303.88 -25.8,456.06 -12.2,275.67 -19.8,551.55 -32.7,827.22 -26.8,573.91 -62.1,1147.43 -106,1720.29 -43.39,567.55 -91.54,1135.56 -156.5,1701.11 -10.56,91.95 -24.31,193.03 -86.6,266.05 -63.29,74.19 -157.19,90.08 -250.06,91.98 -293.82,5.98 -589.43,-7.81 -883.26,-12.83 -1192.69,-20.37 -2385.21,-50.37 -3577.41,-89.99 -555.42,-18.47 -1111.04,-48.3 -1666.69,-57.28 -225.86,-3.65 -451.83,-4.6 -677.54,-14.25 -183.12,-7.82 -370.33,-17.2 -549.37,-59.37 -69.56,-16.38 -153.48,-36.84 -203.51,-92.57 -42.29,-47.11 -61.09,-114.01 -74.88,-174.17 -72.81,-317.45 -48.75,-660.79 -39.78,-983.39 17.95,-645.07 44.39,-1289.97 71.8,-1934.71 25.63,-602.7 49.01,-1206.07 90.02,-1807.99 4.44,-65.01 8.77,-130.12 15.91,-194.91 3.13,-28.48 47.9,-26.86 44.74,1.84 -51.02,463.47 -58,934.67 -79.34,1400.09 -30.92,674.6 -58.54,1349.38 -82,2024.28 -9.23,265.41 -19.98,531.06 -22.36,796.64 -1.72,191.74 -0.97,386.02 24.96,576.38 10.85,79.66 22.94,171.08 66.15,241.04 32.78,53.05 88.68,72.68 146.8,90.21 165.82,50.02 345.37,59.16 517.28,68.29 448.25,23.8 898.11,19.77 1346.75,36.86 1147.3,43.7 2294.94,78.48 3442.78,104.34 571.43,12.87 1142.9,23.54 1714.41,31.99 139.29,2.06 282.89,14.27 421.77,2.38 158.58,-13.57 219.48,-126.35 239.66,-270.99 37.02,-265.2 56.61,-534.15 81.55,-800.72 102.18,-1092.64 172.62,-2188.42 211.72,-3285.13 5.9,-167.03 17.3,-332.98 26.6,-499.77 8,-144 31.4,-325.45 -22.2,-463.3 -37.9,-97.28 -156.03,-130.22 -249.16,-145.73 -123.12,-20.5 -248.2,-33.23 -371.86,-50.5 -276.35,-38.62 -553.46,-71.78 -831.04,-100.34 -1127.84,-116.02 -2261.85,-155.95 -3394.92,-177.11 -565.14,-10.54 -1130.34,-16.38 -1695.51,-24.51 -279.69,-4.01 -559.5,-7.19 -839.14,-14.63 -135.58,-3.6 -285.92,-23.16 -414.68,30.31 -170.14,70.65 -218.15,264.09 -238.22,429.92 -3.44,28.42 -48.21,26.82 -44.74,-1.84"
         style="fill:#4c4c4d;fill-opacity:1;fill-rule:nonzero;stroke:none"
         id="path184" /><path
         d="m 6338.78,7668.91 c -9.5,0 -10.08,14.8 -0.51,14.91 218.42,2.55 436.81,6.66 655.16,12.46 779.12,20.71 1557.64,62.53 2334.52,125.02 0.24,0.02 0.48,0.03 0.71,0.03 8.91,0 9.21,-14.2 -0.09,-14.95 -217.73,-17.51 -435.58,-33.46 -653.54,-47.71 -777.74,-50.89 -1556.81,-80.69 -2336.14,-89.76 -0.04,0 -0.08,0 -0.11,0"
         style="fill:#c1c1bd;fill-opacity:1;fill-rule:nonzero;stroke:none"
         id="path186" /><path
         d="m 6345.49,7134.11 c -8.75,0 -8.97,14.04 0.25,14.96 219.88,21.91 439.89,42.47 660.04,61.58 779.17,67.62 1559.86,117.32 2341.3,149.39 0.12,0.01 0.25,0.01 0.37,0.01 9.25,0 9.71,-14.53 0.24,-14.92 -220.79,-9.06 -441.52,-19.49 -662.16,-31.37 -780.97,-42.05 -1560.94,-102.04 -2339.17,-179.61 -0.3,-0.03 -0.59,-0.04 -0.87,-0.04"
         style="fill:#c1c1bd;fill-opacity:1;fill-rule:nonzero;stroke:none"
         id="path188" /><path
         d="m 6298.39,6646.74 c -9.19,0 -9.62,14.47 -0.18,14.93 230.06,11.19 460.08,23.06 690.07,35.65 813.6,44.55 1626.7,98 2439.14,160.18 0.23,0.02 0.46,0.03 0.68,0.03 8.94,0 9.26,-14.22 -0.06,-14.94 -229.66,-17.57 -459.37,-34.48 -689.12,-50.66 -812.82,-57.25 -1626.24,-105.59 -2440.09,-145.18 -0.15,0 -0.3,-0.01 -0.44,-0.01"
         style="fill:#c1c1bd;fill-opacity:1;fill-rule:nonzero;stroke:none"
         id="path190" /><path
         d="m 6358.13,6106.26 c -8.6,0 -8.78,13.92 0.38,14.97 225.96,25.98 452.08,50.65 678.35,73.94 806.7,82.99 1615.17,148.5 2424.69,196.79 0.18,0.01 0.36,0.02 0.53,0.02 9.1,0 9.48,-14.37 0.08,-14.93 -227.05,-13.55 -454.04,-28.4 -680.91,-44.66 -808.89,-57.96 -1616.48,-133.44 -2422.14,-226.07 -0.34,-0.04 -0.66,-0.06 -0.98,-0.06"
         style="fill:#c1c1bd;fill-opacity:1;fill-rule:nonzero;stroke:none"
         id="path192" /><path
         d="m 6368.99,5637.44 c -8.82,0.01 -9.08,14.12 0.18,14.96 237.12,21.7 474.23,43.41 711.34,65.12 839.76,76.86 1679.53,153.74 2519.31,230.62 0.27,0.02 0.53,0.03 0.79,0.03 8.82,0 9.08,-14.1 -0.19,-14.96 -237.11,-21.7 -474.22,-43.4 -711.33,-65.1 -839.77,-76.88 -1679.54,-153.75 -2519.3,-230.63 -0.28,-0.02 -0.54,-0.04 -0.8,-0.04"
         style="fill:#c1c1bd;fill-opacity:1;fill-rule:nonzero;stroke:none"
         id="path194" /><path
         d="m 6400.24,5259.35 c -9.42,0 -9.96,14.71 -0.42,14.92 232.36,4.88 464.66,11.88 696.89,21.14 820.19,32.7 1639.23,93.04 2455.41,180.45 0.32,0.03 0.63,0.05 0.92,0.05 8.68,0 8.88,-13.98 -0.31,-14.96 -231.08,-24.75 -462.39,-47.4 -693.89,-67.81 -817.69,-72.04 -1637.74,-116.53 -2458.41,-133.78 -0.07,-0.01 -0.13,-0.01 -0.19,-0.01"
         style="fill:#c1c1bd;fill-opacity:1;fill-rule:nonzero;stroke:none"
         id="path196" /><path
         d="m 6419.18,4792.43 c -9.2,0 -9.63,14.47 -0.18,14.92 232.64,11.02 465.23,23.09 697.76,36.3 821.26,46.67 1641.72,107.27 2460.95,181.53 0.27,0.02 0.53,0.03 0.79,0.03 8.82,0 9.08,-14.11 -0.19,-14.95 -231.94,-21.02 -463.99,-40.99 -696.13,-59.82 -819.9,-66.5 -1640.9,-119.1 -2462.57,-158 -0.15,-0.01 -0.29,-0.01 -0.43,-0.01"
         style="fill:#c1c1bd;fill-opacity:1;fill-rule:nonzero;stroke:none"
         id="path198" /><path
         d="m 6500.31,4271.64 c -8.84,0 -9.11,14.14 0.17,14.96 222.16,19.71 444.32,39.42 666.49,59.13 794.85,70.52 1589.71,141.04 2384.56,211.56 0.27,0.02 0.53,0.03 0.78,0.03 8.83,0 9.1,-14.13 -0.17,-14.95 -222.16,-19.71 -444.33,-39.42 -666.49,-59.13 -794.86,-70.51 -1589.7,-141.04 -2384.57,-211.56 -0.26,-0.02 -0.52,-0.04 -0.77,-0.04"
         style="fill:#c1c1bd;fill-opacity:1;fill-rule:nonzero;stroke:none"
         id="path200" /><path
         d="m 6550.25,3778.87 c -8.98,0 -9.31,14.26 0.03,14.94 232.82,16.85 465.63,33.69 698.44,50.53 817.31,59.13 1634.64,118.26 2451.95,177.38 0.22,0.01 0.44,0.02 0.64,0.02 8.99,0 9.32,-14.26 -0.02,-14.93 -232.81,-16.85 -465.63,-33.69 -698.44,-50.53 -817.32,-59.13 -1634.64,-118.25 -2451.96,-177.38 -0.22,-0.02 -0.43,-0.03 -0.64,-0.03"
         style="fill:#c1c1bd;fill-opacity:1;fill-rule:nonzero;stroke:none"
         id="path202" /><path
         d="m 6084.46,7605.79 c -13.67,50.32 -57.38,82.81 -108.39,89.8 -67.29,9.22 -128.15,-29.5 -180.04,-67.19 -23.21,-16.85 0.76,-54.7 24.17,-37.7 56.7,41.17 191.09,113.71 221.61,1.42 7.56,-27.79 50.22,-14.14 42.65,13.67"
         style="fill:#4c4c4d;fill-opacity:1;fill-rule:nonzero;stroke:none"
         id="path204" /><path
         d="m 6123.47,7205.48 c -62.55,119.35 -224.23,118.6 -290.88,3.96 -14.53,-25 25.1,-45.87 39.56,-21.01 50.95,87.64 167.44,80.98 213.61,-7.11 13.37,-25.51 51.03,-1.25 37.71,24.16"
         style="fill:#4c4c4d;fill-opacity:1;fill-rule:nonzero;stroke:none"
         id="path206" /><path
         d="m 5858.49,6811.27 c -13.26,-25.66 27.16,-44.95 40.39,-19.35 44.49,86.04 163.54,71.79 190.92,-19.33 8.32,-27.62 50.52,-12.68 42.25,14.88 -39.17,130.3 -211.83,143.18 -273.56,23.8"
         style="fill:#4c4c4d;fill-opacity:1;fill-rule:nonzero;stroke:none"
         id="path208" /><path
         d="m 6122.89,6427.63 c -54.88,114.99 -219.11,108.69 -265.49,-9.77 -10.41,-26.58 29.06,-47.8 39.56,-21 34.81,88.91 147.21,92.54 188.23,6.6 12.37,-25.93 50,-1.58 37.7,24.17"
         style="fill:#4c4c4d;fill-opacity:1;fill-rule:nonzero;stroke:none"
         id="path210" /><path
         d="m 6169.26,6081.76 c -62.65,125.81 -236.13,122.74 -297.74,-2.02 -12.77,-25.85 26.78,-46.87 39.56,-20.99 47.79,96.77 172.93,94.31 220.46,-1.16 12.84,-25.75 50.47,-1.43 37.72,24.17"
         style="fill:#4c4c4d;fill-opacity:1;fill-rule:nonzero;stroke:none"
         id="path212" /><path
         d="m 6146.87,5737.13 c -19.95,57.09 -76.31,97.74 -138.09,88.72 -62.38,-9.12 -103.25,-64.44 -106.67,-124.77 -1.63,-28.75 43.13,-26.72 44.74,1.84 5.22,91.99 127.72,105.37 157.37,20.55 9.48,-27.13 52.2,-13.64 42.65,13.66"
         style="fill:#4c4c4d;fill-opacity:1;fill-rule:nonzero;stroke:none"
         id="path214" /><path
         d="m 6210.11,5408 c -83.21,115.98 -264.83,75.98 -281.86,-69.32 -3.33,-28.36 40.28,-38.71 43.63,-10.13 12.19,103.96 137.09,143.69 200.51,55.28 16.74,-23.32 54.58,0.66 37.72,24.17"
         style="fill:#4c4c4d;fill-opacity:1;fill-rule:nonzero;stroke:none"
         id="path216" /><path
         d="m 6214.01,5012.17 c -53.6,141.46 -238.14,156.37 -314.2,25.49 -14.53,-24.99 25.1,-45.87 39.56,-21 56.22,96.74 192.18,86.89 231.99,-18.15 10.16,-26.82 52.91,-13.39 42.65,13.66"
         style="fill:#4c4c4d;fill-opacity:1;fill-rule:nonzero;stroke:none"
         id="path218" /><path
         d="m 6228.33,4654.18 c -48.29,140.92 -251,127.77 -275.3,-21.4 -4.62,-28.35 39,-38.6 43.63,-10.12 16.88,103.6 154.26,119.27 189.02,17.85 9.32,-27.2 52.03,-13.7 42.65,13.67"
         style="fill:#4c4c4d;fill-opacity:1;fill-rule:nonzero;stroke:none"
         id="path220" /><path
         d="m 6230.43,4244.57 c -58.13,152.51 -274.54,116.38 -282.49,-45.69 -1.41,-28.78 43.34,-26.77 44.74,1.83 5.52,112.39 155.4,134.35 195.09,30.19 10.22,-26.79 52.96,-13.37 42.66,13.67"
         style="fill:#4c4c4d;fill-opacity:1;fill-rule:nonzero;stroke:none"
         id="path222" /><path
         d="m 6280.81,3914.75 c -49.14,51.77 -108.29,110.86 -185.27,109.43 -57.63,-1.08 -108.34,-33 -123.94,-89.46 -7.69,-27.84 35.98,-37.85 43.63,-10.13 14.77,53.45 76.83,63.56 122.17,46.51 45.91,-17.25 80.04,-54.49 113.07,-89.29 19.87,-20.94 50.1,12.11 30.34,32.94"
         style="fill:#4c4c4d;fill-opacity:1;fill-rule:nonzero;stroke:none"
         id="path224" /><path
         d="m 6068.53,7555.76 c -10.98,0 -22.07,3.95 -31,11.5 -15.67,13.25 -18.06,37.14 -8.72,54.62 5.36,-8.01 9.76,-17.84 13,-29.76 2.9,-10.66 10.97,-15.23 19.39,-15.23 13.52,0 27.93,11.76 23.26,28.9 -4.43,16.29 -12,30.72 -21.95,43.01 3.11,0.67 6.28,1 9.47,1 10.98,0 22.06,-3.94 31,-11.49 18.49,-15.62 18.49,-46.02 2.6,-63.28 -1.6,-1.72 -3.18,-3.45 -4.77,-5.17 -8.79,-9.54 -20.47,-14.1 -32.28,-14.1"
         style="fill:#c1c1bd;fill-opacity:1;fill-rule:nonzero;stroke:none"
         id="path226" /><path
         d="m 6061.2,7576.89 c -8.42,0 -16.49,4.57 -19.39,15.23 -3.24,11.92 -7.64,21.75 -13,29.76 1.67,3.12 3.71,6.04 6.12,8.66 l 4.77,5.17 c 6.42,6.96 14.38,11.27 22.81,13.09 9.95,-12.29 17.52,-26.72 21.95,-43.01 4.67,-17.14 -9.74,-28.9 -23.26,-28.9"
         style="fill:#4c4c4d;fill-opacity:1;fill-rule:nonzero;stroke:none"
         id="path228" /><path
         d="m 5809.32,7559.96 c -11.28,0 -22.63,3.96 -30.93,11.61 -1.72,1.58 -3.44,3.17 -5.17,4.76 -18.41,16.97 -18.26,44.75 -2.59,63.28 8.1,9.59 20.19,14.21 32.36,14.21 7.57,0 15.18,-1.79 21.87,-5.28 -9.89,-6.56 -19.51,-13.36 -28.83,-20.14 -19.12,-13.88 -6.24,-41.99 11.98,-41.99 3.91,0 8.05,1.29 12.19,4.29 9.07,6.59 20.14,13.98 32.45,21.29 2.01,-13.1 -1.85,-27.04 -10.97,-37.83 -8.11,-9.59 -20.2,-14.2 -32.36,-14.2"
         style="fill:#c9c9c9;fill-opacity:1;fill-rule:nonzero;stroke:none"
         id="path230" /><path
         d="m 5808.01,7586.41 c -18.22,0 -31.1,28.11 -11.98,41.99 9.32,6.78 18.94,13.58 28.83,20.14 3.27,-1.71 6.32,-3.82 9.04,-6.33 l 5.18,-4.77 c 7.68,-7.08 12.14,-16.05 13.57,-25.45 -12.31,-7.31 -23.38,-14.7 -32.45,-21.29 -4.14,-3 -8.28,-4.29 -12.19,-4.29"
         style="fill:#4c4c4d;fill-opacity:1;fill-rule:nonzero;stroke:none"
         id="path232" /><path
         d="m 5850.69,7143.13 c -24.17,0 -42.68,19.35 -44.7,42.95 -2.07,24 19.3,45.41 42.57,46.56 -5.77,-7.13 -11.13,-14.87 -15.97,-23.2 -9.91,-17.05 5.38,-32.19 20.7,-32.19 7.13,0 14.26,3.28 18.86,11.18 5.69,9.8 12.21,18.42 19.35,25.87 4.98,-6.93 8.17,-15.33 8.94,-24.35 2.07,-24.12 -19.5,-45.63 -42.91,-46.58 l -4.97,-0.2 c -0.63,-0.03 -1.25,-0.04 -1.87,-0.04"
         style="fill:#c9c9c9;fill-opacity:1;fill-rule:nonzero;stroke:none"
         id="path234" /><path
         d="m 5853.29,7177.25 c -15.32,0 -30.61,15.14 -20.7,32.19 4.84,8.33 10.2,16.07 15.97,23.2 0.11,0 0.22,0.01 0.33,0.01 l 4.97,0.21 c 0.63,0.02 1.25,0.04 1.87,0.04 14.94,0 27.71,-7.39 35.77,-18.6 -7.14,-7.45 -13.66,-16.07 -19.35,-25.87 -4.6,-7.9 -11.73,-11.18 -18.86,-11.18"
         style="fill:#4c4c4d;fill-opacity:1;fill-rule:nonzero;stroke:none"
         id="path236" /><path
         d="m 6113.44,7138.92 c -22.77,0.01 -42.43,20.69 -43.35,43.05 l -0.2,4.97 c -0.23,5.54 0.56,10.81 2.18,15.68 5.05,-6.47 9.64,-13.57 13.69,-21.3 4.02,-7.66 10.22,-10.84 16.58,-10.84 14.81,0 30.45,17.22 21.13,35 -5.15,9.82 -10.96,18.82 -17.34,27.01 2.18,0.49 4.4,0.84 6.66,1.03 1.08,0.09 2.16,0.14 3.22,0.14 22.79,0 42.45,-20.69 43.36,-43.05 l 0.21,-4.97 c 1.04,-25.08 -18.71,-44.5 -42.91,-46.58 -1.08,-0.09 -2.16,-0.14 -3.23,-0.14"
         style="fill:#c1c1bd;fill-opacity:1;fill-rule:nonzero;stroke:none"
         id="path238" /><path
         d="m 6102.34,7170.48 c -6.36,0 -12.56,3.18 -16.58,10.84 -4.05,7.73 -8.64,14.83 -13.69,21.3 5.04,15.08 18.15,26.29 34.06,29.87 6.38,-8.19 12.19,-17.19 17.34,-27.01 9.32,-17.78 -6.32,-35 -21.13,-35"
         style="fill:#4c4c4d;fill-opacity:1;fill-rule:nonzero;stroke:none"
         id="path240" /><path
         d="m 5881.26,6741.44 c -24,0 -45.01,19.83 -46.28,44.87 -1.22,23.86 16.01,43.39 37.7,47.65 -5.2,-6.95 -9.95,-14.51 -14.19,-22.69 -8.84,-17.12 6.21,-31.41 21.14,-31.41 7.44,0 14.85,3.54 19.25,12.06 5.06,9.77 11.07,18.25 17.8,25.47 4.58,-6.19 7.56,-13.57 8.71,-21.37 5.4,-21.84 -9.09,-45.24 -29.98,-52.25 -4.75,-1.59 -9.51,-2.33 -14.15,-2.33"
         style="fill:#c9c9c9;fill-opacity:1;fill-rule:nonzero;stroke:none"
         id="path242" /><path
         d="m 5879.63,6779.86 c -14.93,0 -29.98,14.29 -21.14,31.41 4.24,8.18 8.99,15.74 14.19,22.69 2.88,0.57 5.85,0.86 8.86,0.86 3.34,0 6.74,-0.36 10.14,-1.13 10.62,-2.38 19.13,-8.36 25,-16.3 -6.73,-7.22 -12.74,-15.7 -17.8,-25.47 -4.4,-8.52 -11.81,-12.06 -19.25,-12.06"
         style="fill:#4c4c4d;fill-opacity:1;fill-rule:nonzero;stroke:none"
         id="path244" /><path
         d="m 6127,6711.25 c -37.12,0.01 -50.65,39 -38.54,65.54 0.47,-1.39 0.92,-2.78 1.34,-4.2 3.11,-10.32 10.94,-14.7 19.11,-14.7 13.69,0 28.32,12.32 23.14,29.58 -1.38,4.6 -2.93,9.06 -4.64,13.36 0.13,0 0.26,0 0.39,0 55.52,0 58.27,-87.2 1.44,-89.53 -0.76,-0.03 -1.5,-0.05 -2.24,-0.05"
         style="fill:#c1c1bd;fill-opacity:1;fill-rule:nonzero;stroke:none"
         id="path246" /><path
         d="m 6108.91,6757.89 c -8.17,0 -16,4.38 -19.11,14.7 -0.42,1.42 -0.87,2.81 -1.34,4.2 6,13.14 18.28,23.22 37.11,23.99 0.62,0.03 1.23,0.05 1.84,0.05 1.71,-4.3 3.26,-8.76 4.64,-13.36 5.18,-17.26 -9.45,-29.58 -23.14,-29.58"
         style="fill:#4c4c4d;fill-opacity:1;fill-rule:nonzero;stroke:none"
         id="path248" /><path
         d="m 5877.39,6362.37 c -55.53,0.01 -58.27,87.21 -1.44,89.54 0.01,0 0.01,0 0.02,0 -7.35,-10.07 -13.63,-21.42 -18.57,-34.05 -7.01,-17.91 8.61,-33.38 22.76,-33.38 6.86,0 13.37,3.63 16.8,12.38 4.89,12.5 11.32,23.32 18.87,32.44 13.09,-26.01 1.69,-65.33 -36.21,-66.88 -0.75,-0.03 -1.49,-0.05 -2.23,-0.05"
         style="fill:#c9c9c9;fill-opacity:1;fill-rule:nonzero;stroke:none"
         id="path250" /><path
         d="m 5880.16,6384.48 c -14.15,0 -29.77,15.47 -22.76,33.38 4.94,12.63 11.22,23.98 18.57,34.05 0.75,0.03 1.48,0.05 2.2,0.05 18.49,0 31.13,-9.67 37.66,-22.66 -7.55,-9.12 -13.98,-19.94 -18.87,-32.44 -3.43,-8.75 -9.94,-12.38 -16.8,-12.38"
         style="fill:#4c4c4d;fill-opacity:1;fill-rule:nonzero;stroke:none"
         id="path252" /><path
         d="m 6130.97,6347.82 c -22.78,0.01 -42.44,20.69 -43.36,43.05 l -0.37,9.04 c 3.71,-5.28 8.78,-7.53 14.01,-7.53 14.49,0 30.22,17.28 21.64,35.25 -2.63,5.51 -5.52,10.75 -8.62,15.7 4.91,2.18 10.25,3.59 15.84,4.07 1.08,0.09 2.15,0.14 3.22,0.14 22.78,0 42.44,-20.69 43.36,-43.05 l 0.41,-9.95 c 1.03,-25.08 -18.71,-44.5 -42.91,-46.58 -1.08,-0.09 -2.15,-0.14 -3.22,-0.14"
         style="fill:#c1c1bd;fill-opacity:1;fill-rule:nonzero;stroke:none"
         id="path254" /><path
         d="m 6101.25,6392.38 c -5.23,0 -10.3,2.25 -14.01,7.53 l -0.03,0.91 c -0.8,19.29 10.7,35.23 27.06,42.51 3.1,-4.95 5.99,-10.19 8.62,-15.7 8.58,-17.97 -7.15,-35.25 -21.64,-35.25"
         style="fill:#4c4c4d;fill-opacity:1;fill-rule:nonzero;stroke:none"
         id="path256" /><path
         d="m 5883.21,6004.35 c -7.35,0 -14.7,1.57 -21.2,4.67 -22.77,10.86 -28.2,39.24 -18.56,60.56 1.52,3.38 3.05,6.76 4.58,10.14 6.75,14.93 21.75,22.52 37.12,23.19 -4.99,-7.19 -9.56,-14.91 -13.63,-23.17 -8.65,-17.51 6.71,-32.81 21.49,-32.81 7.04,0 13.95,3.47 18.07,11.82 4.29,8.68 9.2,16.57 14.63,23.66 7.6,-13.19 7.86,-30.5 1.44,-44.69 -1.53,-3.38 -3.06,-6.76 -4.58,-10.14 -7.08,-15.66 -23.22,-23.23 -39.36,-23.23"
         style="fill:#c9c9c9;fill-opacity:1;fill-rule:nonzero;stroke:none"
         id="path258" /><path
         d="m 5893.01,6046.93 c -14.78,0 -30.14,15.3 -21.49,32.81 4.07,8.26 8.64,15.98 13.63,23.17 0.75,0.03 1.49,0.04 2.24,0.04 7.35,0 14.7,-1.57 21.2,-4.67 7.62,-3.63 13.3,-9.23 17.12,-15.87 -5.43,-7.09 -10.34,-14.98 -14.63,-23.66 -4.12,-8.35 -11.03,-11.82 -18.07,-11.82"
         style="fill:#4c4c4d;fill-opacity:1;fill-rule:nonzero;stroke:none"
         id="path260" /><path
         d="m 6149.41,6019.9 c -22.78,0 -42.45,20.69 -43.36,43.05 l -0.42,9.94 c -0.26,6.44 0.85,12.51 3.04,18 8.77,-9.42 16.51,-20.53 22.87,-33.3 3.87,-7.76 9.99,-10.97 16.31,-10.97 14.64,-0.01 30.32,17.25 21.41,35.14 -6.97,13.99 -15.31,26.39 -24.71,37.21 1.31,0.22 2.65,0.39 3.99,0.5 1.09,0.1 2.16,0.14 3.23,0.14 22.78,0 42.43,-20.69 43.36,-43.04 l 0.41,-9.95 c 1.02,-25.08 -18.72,-44.5 -42.91,-46.58 -1.08,-0.09 -2.15,-0.14 -3.22,-0.14"
         style="fill:#c1c1bd;fill-opacity:1;fill-rule:nonzero;stroke:none"
         id="path262" /><path
         d="m 6147.85,6046.62 c -6.32,0 -12.44,3.21 -16.31,10.97 -6.36,12.77 -14.1,23.88 -22.87,33.3 5.89,14.72 19.61,25.34 35.88,28.08 9.4,-10.82 17.74,-23.22 24.71,-37.21 8.91,-17.89 -6.77,-35.15 -21.41,-35.14"
         style="fill:#4c4c4d;fill-opacity:1;fill-rule:nonzero;stroke:none"
         id="path264" /><path
         d="m 5912.41,5645.88 c -18.83,0.01 -36.29,13.91 -42.78,31.49 -8.7,23.54 7.13,48.03 28.99,56.33 3.44,1.3 6.87,2.61 10.31,3.92 -3.79,-11.72 -6.11,-24.02 -6.82,-36.54 -0.78,-13.89 9.26,-20.59 20.03,-20.59 11.52,0 23.88,7.67 24.71,22.43 0.62,10.91 2.89,20.72 6.46,29.39 7.33,-5.65 13.15,-13.39 16.34,-22.02 8.7,-23.53 -7.13,-48.02 -28.99,-56.33 -4.9,-1.85 -9.81,-3.71 -14.71,-5.58 -4.51,-1.71 -9.06,-2.5 -13.54,-2.5"
         style="fill:#c9c9c9;fill-opacity:1;fill-rule:nonzero;stroke:none"
         id="path266" /><path
         d="m 5922.14,5680.49 c -10.77,0 -20.81,6.7 -20.03,20.59 0.71,12.52 3.03,24.82 6.82,36.54 1.47,0.55 2.93,1.11 4.4,1.67 4.5,1.71 9.06,2.49 13.54,2.49 9.59,0 18.83,-3.61 26.44,-9.47 -3.57,-8.67 -5.84,-18.48 -6.46,-29.39 -0.83,-14.76 -13.19,-22.43 -24.71,-22.43"
         style="fill:#4c4c4d;fill-opacity:1;fill-rule:nonzero;stroke:none"
         id="path268" /><path
         d="m 6144.17,5686.09 c -28.12,0 -42.7,22.36 -42.86,44.74 1.05,-2.37 2.02,-4.82 2.91,-7.36 3.62,-10.37 12.1,-14.81 20.66,-14.81 13.84,0 27.89,11.6 21.99,28.47 -4.49,12.86 -10.83,24.88 -18.66,35.69 4.31,1.6 9.15,2.57 14.52,2.79 0.76,0.04 1.5,0.05 2.24,0.05 55.52,0 58.26,-87.19 1.44,-89.53 -0.76,-0.03 -1.5,-0.04 -2.24,-0.04"
         style="fill:#c1c1bd;fill-opacity:1;fill-rule:nonzero;stroke:none"
         id="path270" /><path
         d="m 6124.88,5708.66 c -8.56,0 -17.04,4.44 -20.66,14.81 -0.89,2.54 -1.86,4.99 -2.91,7.36 -0.13,17.63 8.69,35.27 26.9,41.99 7.83,-10.81 14.17,-22.83 18.66,-35.69 5.9,-16.87 -8.15,-28.47 -21.99,-28.47"
         style="fill:#4c4c4d;fill-opacity:1;fill-rule:nonzero;stroke:none"
         id="path272" /><path
         d="m 5941.29,5299.27 c -24.17,0 -42.69,19.35 -44.71,42.95 -2.08,24.12 19.5,45.62 42.9,46.58 l 2.71,0.11 c -6.95,-14.97 -11.78,-31.75 -13.94,-50.23 -1.96,-16.65 12.27,-27.09 25.03,-27.09 8.97,0 17.22,5.16 18.6,16.96 1.73,14.71 5.71,28.13 11.45,40.09 4.27,-6.57 7,-14.3 7.71,-22.55 2.06,-24.12 -19.51,-45.61 -42.91,-46.58 l -4.98,-0.2 c -0.62,-0.03 -1.24,-0.04 -1.86,-0.04"
         style="fill:#c9c9c9;fill-opacity:1;fill-rule:nonzero;stroke:none"
         id="path274" /><path
         d="m 5953.28,5311.59 c -12.76,0 -26.99,10.44 -25.03,27.09 2.16,18.48 6.99,35.26 13.94,50.23 l 2.26,0.1 c 0.63,0.02 1.25,0.03 1.87,0.03 15.72,0 29.06,-8.19 37.01,-20.4 -5.74,-11.96 -9.72,-25.38 -11.45,-40.09 -1.38,-11.8 -9.63,-16.96 -18.6,-16.96"
         style="fill:#4c4c4d;fill-opacity:1;fill-rule:nonzero;stroke:none"
         id="path276" /><path
         d="m 6187.05,5349.71 c -3.04,0 -6.16,0.28 -9.32,0.87 -14.49,2.67 -26.46,14.31 -31.82,28.19 l -0.72,0.86 c -6.98,9.9 -8.07,22.73 -5.93,34.3 0.1,0.56 0.22,1.12 0.36,1.69 11.95,-7.76 23.08,-18.28 32.77,-31.79 4.83,-6.73 11.42,-9.52 17.94,-9.52 16.08,0 31.78,16.96 19.78,33.69 -11.37,15.84 -24.58,28.78 -38.95,38.93 4.18,1.19 8.6,1.9 12.79,1.9 3.24,0 6.34,-0.42 9.07,-1.4 13.82,-4.93 24.3,-10.72 32.17,-23.16 7.35,-11.62 10.03,-26.84 6.3,-40.19 -5.89,-21.09 -23.57,-34.37 -44.44,-34.37"
         style="fill:#c1c1bd;fill-opacity:1;fill-rule:nonzero;stroke:none"
         id="path278" /><path
         d="m 6190.33,5374.31 c -6.52,0 -13.11,2.79 -17.94,9.52 -9.69,13.51 -20.82,24.03 -32.77,31.79 2.51,10.2 10.52,20.38 19.11,25.88 3.38,2.17 7.75,4.1 12.43,5.43 14.37,-10.15 27.58,-23.09 38.95,-38.93 12,-16.73 -3.7,-33.69 -19.78,-33.69"
         style="fill:#4c4c4d;fill-opacity:1;fill-rule:nonzero;stroke:none"
         id="path280" /><path
         d="m 5924.93,4969.92 c -24.18,0 -42.69,19.36 -44.72,42.95 -1.78,20.66 13.8,39.4 33.01,44.95 -4.77,-6.29 -9.25,-13 -13.41,-20.16 -9.91,-17.05 5.39,-32.19 20.7,-32.19 7.13,0 14.27,3.28 18.86,11.19 6.49,11.16 14.04,20.91 22.38,29.25 7.26,-7.68 11.95,-17.94 12.92,-29.16 2.07,-24.12 -19.5,-45.63 -42.91,-46.59 l -4.97,-0.2 c -0.62,-0.02 -1.24,-0.04 -1.86,-0.04"
         style="fill:#c9c9c9;fill-opacity:1;fill-rule:nonzero;stroke:none"
         id="path282" /><path
         d="m 5920.51,5005.47 c -15.31,0 -30.61,15.14 -20.7,32.19 4.16,7.16 8.64,13.87 13.41,20.16 3.22,0.93 6.54,1.49 9.9,1.63 l 4.96,0.21 c 0.63,0.03 1.25,0.04 1.87,0.04 12.68,0 23.8,-5.33 31.8,-13.79 -8.34,-8.34 -15.89,-18.09 -22.38,-29.25 -4.59,-7.91 -11.73,-11.19 -18.86,-11.19"
         style="fill:#4c4c4d;fill-opacity:1;fill-rule:nonzero;stroke:none"
         id="path284" /><path
         d="m 6193.05,4955.98 c -22.78,0.01 -42.44,20.7 -43.35,43.05 l -0.21,4.96 c -0.37,9.11 1.99,17.46 6.31,24.51 6.11,-8.93 11.37,-18.93 15.56,-29.99 3.87,-10.23 12.48,-14.6 21.09,-14.6 13.96,0 27.91,11.52 21.56,28.26 -5.34,14.11 -11.99,26.95 -19.7,38.52 0.44,0.02 0.88,0.02 1.31,0.02 22.79,0 42.44,-20.68 43.36,-43.05 l 0.21,-4.96 c 1.02,-25.08 -18.71,-44.5 -42.91,-46.58 -1.08,-0.09 -2.16,-0.14 -3.23,-0.14"
         style="fill:#c1c1bd;fill-opacity:1;fill-rule:nonzero;stroke:none"
         id="path286" /><path
         d="m 6192.45,4983.91 c -8.61,0 -17.22,4.37 -21.09,14.6 -4.19,11.06 -9.45,21.06 -15.56,29.99 7.58,12.39 21.18,20.75 36.6,22.07 0.64,0.06 1.28,0.1 1.91,0.12 7.71,-11.57 14.36,-24.41 19.7,-38.52 6.35,-16.74 -7.6,-28.26 -21.56,-28.26"
         style="fill:#4c4c4d;fill-opacity:1;fill-rule:nonzero;stroke:none"
         id="path288" /><path
         d="m 5976.04,4573.62 c -24.17,0.01 -42.68,19.36 -44.71,42.95 -1.64,19.04 11.46,36.44 28.55,43.4 -2.97,-8.49 -5.28,-17.55 -6.85,-27.19 -2.71,-16.63 11.19,-27.04 24.08,-27.04 9.07,0 17.64,5.15 19.55,16.92 1.95,11.92 5.48,22.67 10.27,32.22 10.61,-7.85 17.65,-20.39 18.86,-34.43 2.07,-24.12 -19.51,-45.62 -42.91,-46.58 l -4.98,-0.21 c -0.62,-0.02 -1.24,-0.04 -1.86,-0.04"
         style="fill:#c9c9c9;fill-opacity:1;fill-rule:nonzero;stroke:none"
         id="path290" /><path
         d="m 5977.11,4605.74 c -12.89,0 -26.79,10.41 -24.08,27.04 1.57,9.64 3.88,18.7 6.85,27.19 4.57,1.86 9.42,2.98 14.35,3.18 l 4.98,0.2 c 0.63,0.03 1.26,0.04 1.88,0.04 9.78,0 18.64,-3.17 25.84,-8.51 -4.79,-9.55 -8.32,-20.3 -10.27,-32.22 -1.91,-11.77 -10.48,-16.92 -19.55,-16.92"
         style="fill:#4c4c4d;fill-opacity:1;fill-rule:nonzero;stroke:none"
         id="path292" /><path
         d="m 6210.73,4573.5 c -11.28,0 -22.63,3.97 -30.93,11.61 -1.73,1.59 -3.44,3.18 -5.17,4.77 -18.41,16.96 -18.26,44.74 -2.6,63.27 1.74,2.06 3.66,3.89 5.72,5.49 3.03,-5.56 5.69,-11.61 7.93,-18.13 3.56,-10.4 12.01,-14.85 20.55,-14.85 13.82,0 27.9,11.61 22.1,28.52 -0.99,2.88 -2.04,5.7 -3.15,8.45 3.68,-1.79 7.11,-4.09 10.13,-6.88 1.73,-1.59 3.45,-3.17 5.18,-4.76 18.41,-16.97 18.26,-44.75 2.6,-63.29 -8.11,-9.58 -20.2,-14.2 -32.36,-14.2"
         style="fill:#c1c1bd;fill-opacity:1;fill-rule:nonzero;stroke:none"
         id="path294" /><path
         d="m 6206.23,4625.66 c -8.54,0 -16.99,4.45 -20.55,14.85 -2.24,6.52 -4.9,12.57 -7.93,18.13 7.57,5.88 17.08,8.73 26.64,8.73 7.17,0 14.36,-1.61 20.79,-4.74 1.11,-2.75 2.16,-5.57 3.15,-8.45 5.8,-16.91 -8.28,-28.52 -22.1,-28.52"
         style="fill:#4c4c4d;fill-opacity:1;fill-rule:nonzero;stroke:none"
         id="path296" /><path
         d="m 5972.92,4155.19 c -49.65,0 -57.1,69.74 -17.47,86.15 -4.15,-13 -6.76,-27.17 -7.51,-42.46 -0.68,-13.91 9.42,-20.63 20.2,-20.63 11.52,0 23.82,7.68 24.54,22.46 0.64,13.06 3.23,24.89 7.37,35.44 28,-22.06 20.9,-79.04 -24.89,-80.92 -0.76,-0.03 -1.5,-0.04 -2.24,-0.04"
         style="fill:#c9c9c9;fill-opacity:1;fill-rule:nonzero;stroke:none"
         id="path298" /><path
         d="m 5968.14,4178.25 c -10.78,0 -20.88,6.72 -20.2,20.63 0.75,15.29 3.36,29.46 7.51,42.46 4.69,1.93 10.03,3.13 16.03,3.38 0.76,0.03 1.5,0.04 2.24,0.04 10.79,0 19.58,-3.28 26.33,-8.61 -4.14,-10.55 -6.73,-22.38 -7.37,-35.44 -0.72,-14.78 -13.02,-22.46 -24.54,-22.46"
         style="fill:#4c4c4d;fill-opacity:1;fill-rule:nonzero;stroke:none"
         id="path300" /><path
         d="m 6201.2,4174.51 c -45.53,0.01 -55.57,58.67 -26.34,81.05 5.04,-7.25 9.41,-15.47 12.91,-24.66 3.9,-10.21 12.52,-14.58 21.12,-14.58 13.98,0 27.92,11.52 21.54,28.25 -1.78,4.66 -3.71,9.16 -5.77,13.47 32.21,-19.79 26.48,-81.52 -21.22,-83.48 -0.76,-0.03 -1.5,-0.05 -2.24,-0.05"
         style="fill:#c1c1bd;fill-opacity:1;fill-rule:nonzero;stroke:none"
         id="path302" /><path
         d="m 6208.89,4216.32 c -8.6,0 -17.22,4.37 -21.12,14.58 -3.5,9.19 -7.87,17.41 -12.91,24.66 6.4,4.9 14.69,8.06 24.9,8.48 0.76,0.03 1.5,0.05 2.24,0.05 8.93,0 16.49,-2.26 22.66,-6.05 2.06,-4.31 3.99,-8.81 5.77,-13.47 6.38,-16.73 -7.56,-28.25 -21.54,-28.25"
         style="fill:#4c4c4d;fill-opacity:1;fill-rule:nonzero;stroke:none"
         id="path304" /><path
         d="m 5984.92,3871.81 c -24.17,0 -42.69,19.35 -44.71,42.95 -2.06,23.88 19.08,45.2 42.22,46.55 -4.53,-8.14 -8.19,-17.01 -10.83,-26.59 -4.52,-16.37 8.7,-26.57 21.93,-26.57 9.27,0 18.55,5.02 21.7,16.44 2.11,7.63 5.19,14.39 9.04,20.3 5.81,-7.28 9.54,-16.4 10.39,-26.26 2.08,-24.12 -19.51,-45.61 -42.91,-46.58 l -4.97,-0.2 c -0.63,-0.03 -1.24,-0.04 -1.86,-0.04"
         style="fill:#c9c9c9;fill-opacity:1;fill-rule:nonzero;stroke:none"
         id="path306" /><path
         d="m 5993.53,3908.15 c -13.23,0 -26.45,10.2 -21.93,26.57 2.64,9.58 6.3,18.45 10.83,26.59 0.23,0.01 0.45,0.02 0.68,0.03 l 4.97,0.2 c 0.63,0.03 1.25,0.04 1.87,0.04 14.07,0 26.22,-6.56 34.32,-16.69 -3.85,-5.91 -6.93,-12.67 -9.04,-20.3 -3.15,-11.42 -12.43,-16.44 -21.7,-16.44"
         style="fill:#4c4c4d;fill-opacity:1;fill-rule:nonzero;stroke:none"
         id="path308" /><path
         d="m 6249.47,3847.81 c -39.91,0.01 -52.55,45.08 -35.38,71.28 12.59,-12.06 24.56,-24.82 36.38,-37.28 4.47,-4.71 9.47,-6.69 14.3,-6.69 16.64,0 31.36,23.48 16.04,39.63 -6.79,7.15 -13.78,14.45 -20.97,21.71 46.06,-9.4 45.23,-86.41 -8.13,-88.6 -0.76,-0.03 -1.5,-0.05 -2.24,-0.05"
         style="fill:#c1c1bd;fill-opacity:1;fill-rule:nonzero;stroke:none"
         id="path310" /><path
         d="m 6264.77,3875.12 c -4.83,0 -9.83,1.98 -14.3,6.69 -11.82,12.46 -23.79,25.22 -36.38,37.28 6.71,10.24 17.97,17.6 33.95,18.25 0.75,0.03 1.49,0.05 2.23,0.05 3.39,0 6.58,-0.33 9.57,-0.93 7.19,-7.26 14.18,-14.56 20.97,-21.71 15.32,-16.15 0.6,-39.63 -16.04,-39.63"
         style="fill:#4c4c4d;fill-opacity:1;fill-rule:nonzero;stroke:none"
         id="path312" /><path
         d="m 6263.38,3609.23 c -13.67,50.32 -57.39,82.81 -108.39,89.8 -67.3,9.23 -128.16,-29.5 -180.05,-67.18 -23.21,-16.86 0.76,-54.71 24.17,-37.71 56.71,41.17 191.1,113.72 221.61,1.43 7.56,-27.81 50.22,-14.15 42.66,13.66"
         style="fill:#4c4c4d;fill-opacity:1;fill-rule:nonzero;stroke:none"
         id="path314" /><path
         d="m 6065.11,8263.82 c -62.55,119.35 -224.23,118.6 -290.88,3.95 -14.53,-24.99 25.1,-45.87 39.56,-21 50.95,87.64 167.44,80.98 213.61,-7.11 13.37,-25.52 51.03,-1.25 37.71,24.16"
         style="fill:#4c4c4d;fill-opacity:1;fill-rule:nonzero;stroke:none"
         id="path316" /><path
         d="m 5826.29,7960.32 c -13.26,-25.66 27.16,-44.95 40.39,-19.35 44.49,86.05 163.53,71.79 190.93,-19.33 8.3,-27.62 50.52,-12.68 42.23,14.88 -39.17,130.3 -211.82,143.18 -273.55,23.8"
         style="fill:#4c4c4d;fill-opacity:1;fill-rule:nonzero;stroke:none"
         id="path318" /><path
         d="m 6247.45,3559.2 c -10.98,0.01 -22.07,3.95 -31,11.5 -15.68,13.25 -18.06,37.15 -8.72,54.62 5.35,-8.01 9.76,-17.84 12.99,-29.75 2.9,-10.67 10.98,-15.24 19.39,-15.24 13.52,0 27.93,11.76 23.27,28.9 -4.43,16.29 -12.01,30.72 -21.96,43.01 3.11,0.67 6.29,1.01 9.47,1.01 10.99,0 22.07,-3.95 31.01,-11.5 18.47,-15.62 18.48,-46.03 2.59,-63.27 -1.59,-1.73 -3.17,-3.46 -4.76,-5.18 -8.79,-9.54 -20.48,-14.1 -32.28,-14.1"
         style="fill:#c1c1bd;fill-opacity:1;fill-rule:nonzero;stroke:none"
         id="path320" /><path
         d="m 6240.11,3580.33 c -8.41,0 -16.49,4.57 -19.39,15.24 -3.23,11.91 -7.64,21.74 -12.99,29.75 1.66,3.12 3.71,6.04 6.12,8.65 l 4.76,5.18 c 6.42,6.97 14.38,11.28 22.81,13.09 9.95,-12.29 17.53,-26.72 21.96,-43.01 4.66,-17.14 -9.75,-28.9 -23.27,-28.9"
         style="fill:#4c4c4d;fill-opacity:1;fill-rule:nonzero;stroke:none"
         id="path322" /><path
         d="m 5988.22,3563.4 c -11.27,0 -22.61,3.96 -30.91,11.61 -1.72,1.58 -3.45,3.17 -5.18,4.77 -18.41,16.96 -18.25,44.74 -2.59,63.28 8.1,9.59 20.19,14.2 32.35,14.2 7.58,0 15.18,-1.79 21.88,-5.28 -9.89,-6.56 -19.5,-13.36 -28.83,-20.13 -19.11,-13.88 -6.23,-42 11.99,-42 3.9,0 8.05,1.29 12.18,4.29 9.08,6.59 20.15,13.98 32.46,21.3 2,-13.11 -1.86,-27.04 -10.98,-37.83 -8.11,-9.59 -20.2,-14.21 -32.37,-14.21"
         style="fill:#c9c9c9;fill-opacity:1;fill-rule:nonzero;stroke:none"
         id="path324" /><path
         d="m 5986.93,3589.85 c -18.22,0 -31.1,28.12 -11.99,42 9.33,6.77 18.94,13.57 28.83,20.13 3.27,-1.71 6.32,-3.82 9.05,-6.34 l 5.17,-4.76 c 7.69,-7.08 12.14,-16.05 13.58,-25.44 -12.31,-7.32 -23.38,-14.71 -32.46,-21.3 -4.13,-3 -8.28,-4.29 -12.18,-4.29"
         style="fill:#4c4c4d;fill-opacity:1;fill-rule:nonzero;stroke:none"
         id="path326" /><path
         d="m 5792.33,8201.47 c -24.18,0 -42.68,19.35 -44.71,42.94 -2.06,24.01 19.3,45.42 42.58,46.57 -5.78,-7.14 -11.12,-14.87 -15.97,-23.21 -9.92,-17.05 5.38,-32.18 20.7,-32.18 7.13,0 14.26,3.28 18.86,11.18 5.69,9.8 12.2,18.41 19.35,25.87 4.98,-6.94 8.16,-15.34 8.94,-24.35 2.07,-24.12 -19.5,-45.62 -42.91,-46.58 l -4.97,-0.21 c -0.62,-0.02 -1.25,-0.03 -1.87,-0.03"
         style="fill:#c9c9c9;fill-opacity:1;fill-rule:nonzero;stroke:none"
         id="path328" /><path
         d="m 5794.93,8235.59 c -15.32,0 -30.62,15.13 -20.7,32.18 4.85,8.34 10.19,16.07 15.97,23.21 0.11,0 0.22,0.01 0.33,0.01 l 4.97,0.21 c 0.63,0.02 1.25,0.04 1.88,0.04 14.93,0 27.7,-7.39 35.76,-18.6 -7.15,-7.46 -13.66,-16.07 -19.35,-25.87 -4.6,-7.9 -11.73,-11.18 -18.86,-11.18"
         style="fill:#4c4c4d;fill-opacity:1;fill-rule:nonzero;stroke:none"
         id="path330" /><path
         d="m 6055.09,8197.26 c -22.78,0 -42.44,20.69 -43.36,43.05 l -0.21,4.97 c -0.22,5.55 0.56,10.81 2.19,15.68 5.05,-6.47 9.64,-13.57 13.69,-21.3 4.02,-7.66 10.22,-10.84 16.58,-10.84 14.81,0 30.45,17.22 21.13,35 -5.15,9.82 -10.96,18.82 -17.34,27.01 2.18,0.49 4.4,0.84 6.66,1.03 1.09,0.09 2.16,0.14 3.23,0.14 22.78,0 42.44,-20.69 43.35,-43.05 l 0.21,-4.97 c 1.03,-25.08 -18.71,-44.5 -42.91,-46.58 -1.08,-0.1 -2.15,-0.14 -3.22,-0.14"
         style="fill:#c1c1bd;fill-opacity:1;fill-rule:nonzero;stroke:none"
         id="path332" /><path
         d="m 6043.98,8228.82 c -6.36,0 -12.56,3.18 -16.58,10.84 -4.05,7.73 -8.64,14.83 -13.69,21.3 5.05,15.08 18.15,26.29 34.06,29.87 6.38,-8.19 12.19,-17.19 17.34,-27.01 9.32,-17.78 -6.32,-35 -21.13,-35"
         style="fill:#4c4c4d;fill-opacity:1;fill-rule:nonzero;stroke:none"
         id="path334" /><path
         d="m 5849.05,7890.49 c -24,0 -45,19.83 -46.27,44.87 -1.22,23.87 16.01,43.4 37.7,47.65 -5.2,-6.94 -9.96,-14.51 -14.19,-22.69 -8.85,-17.12 6.21,-31.41 21.14,-31.41 7.44,0 14.85,3.55 19.25,12.06 5.05,9.77 11.07,18.25 17.8,25.47 4.57,-6.19 7.56,-13.57 8.7,-21.37 5.4,-21.83 -9.08,-45.24 -29.97,-52.24 -4.75,-1.6 -9.51,-2.34 -14.16,-2.34"
         style="fill:#c9c9c9;fill-opacity:1;fill-rule:nonzero;stroke:none"
         id="path336" /><path
         d="m 5847.43,7928.91 c -14.93,0 -29.99,14.29 -21.14,31.41 4.23,8.18 8.99,15.75 14.19,22.69 2.88,0.57 5.84,0.86 8.85,0.86 3.34,0 6.74,-0.36 10.15,-1.13 10.62,-2.38 19.12,-8.36 25,-16.3 -6.73,-7.22 -12.75,-15.7 -17.8,-25.47 -4.4,-8.51 -11.81,-12.06 -19.25,-12.06"
         style="fill:#4c4c4d;fill-opacity:1;fill-rule:nonzero;stroke:none"
         id="path338" /><path
         d="m 6094.81,7860.31 c -37.14,0 -50.67,39.01 -38.55,65.54 0.47,-1.39 0.92,-2.78 1.35,-4.21 3.1,-10.32 10.93,-14.7 19.1,-14.7 13.69,0 28.32,12.32 23.13,29.58 -1.38,4.6 -2.93,9.06 -4.63,13.36 0.13,0 0.26,0 0.39,0 55.52,0 58.26,-87.19 1.44,-89.53 -0.75,-0.03 -1.5,-0.04 -2.23,-0.04"
         style="fill:#c1c1bd;fill-opacity:1;fill-rule:nonzero;stroke:none"
         id="path340" /><path
         d="m 6076.71,7906.94 c -8.17,0 -16,4.38 -19.1,14.7 -0.43,1.43 -0.88,2.82 -1.35,4.21 6,13.14 18.29,23.22 37.11,23.99 0.62,0.02 1.23,0.04 1.84,0.04 1.7,-4.3 3.25,-8.76 4.63,-13.36 5.19,-17.26 -9.44,-29.58 -23.13,-29.58"
         style="fill:#4c4c4d;fill-opacity:1;fill-rule:nonzero;stroke:none"
         id="path342" /><path
         d="m 6269.49,3282.27 c -62.54,119.35 -224.23,118.6 -290.88,3.95 -14.52,-24.98 25.11,-45.87 39.56,-21 50.96,87.65 167.44,80.98 213.62,-7.11 13.37,-25.51 51.02,-1.24 37.7,24.16"
         style="fill:#4c4c4d;fill-opacity:1;fill-rule:nonzero;stroke:none"
         id="path344" /><path
         d="m 5996.72,3219.91 c -24.17,0.01 -42.68,19.37 -44.71,42.95 -2.06,24.01 19.3,45.43 42.58,46.57 -5.78,-7.13 -11.13,-14.87 -15.98,-23.21 -9.91,-17.04 5.39,-32.18 20.7,-32.18 7.14,0 14.27,3.28 18.86,11.18 5.7,9.8 12.21,18.41 19.35,25.87 4.99,-6.93 8.17,-15.33 8.94,-24.35 2.08,-24.12 -19.5,-45.62 -42.9,-46.58 l -4.97,-0.21 c -0.63,-0.02 -1.25,-0.04 -1.87,-0.04"
         style="fill:#c9c9c9;fill-opacity:1;fill-rule:nonzero;stroke:none"
         id="path346" /><path
         d="m 5999.31,3254.04 c -15.31,0 -30.61,15.14 -20.7,32.18 4.85,8.34 10.2,16.08 15.98,23.21 0.11,0 0.22,0.01 0.33,0.01 l 4.97,0.21 c 0.63,0.02 1.25,0.04 1.87,0.04 14.93,0 27.7,-7.39 35.76,-18.6 -7.14,-7.46 -13.65,-16.07 -19.35,-25.87 -4.59,-7.9 -11.72,-11.18 -18.86,-11.18"
         style="fill:#4c4c4d;fill-opacity:1;fill-rule:nonzero;stroke:none"
         id="path348" /><path
         d="m 6259.48,3215.71 c -22.79,0 -42.44,20.69 -43.36,43.05 l -0.2,4.97 c -0.23,5.54 0.56,10.81 2.18,15.68 5.04,-6.47 9.63,-13.57 13.69,-21.3 4.01,-7.66 10.22,-10.83 16.57,-10.83 14.82,-0.01 30.45,17.21 21.13,34.99 -5.14,9.82 -10.96,18.82 -17.33,27.01 2.17,0.49 4.4,0.84 6.66,1.03 1.08,0.09 2.15,0.14 3.22,0.14 22.78,0 42.45,-20.69 43.36,-43.05 l 0.21,-4.97 c 1.03,-25.09 -18.72,-44.5 -42.91,-46.58 -1.08,-0.09 -2.15,-0.14 -3.22,-0.14"
         style="fill:#c1c1bd;fill-opacity:1;fill-rule:nonzero;stroke:none"
         id="path350" /><path
         d="m 6248.36,3247.28 c -6.35,0 -12.56,3.17 -16.57,10.83 -4.06,7.73 -8.65,14.83 -13.69,21.3 5.04,15.09 18.14,26.3 34.06,29.87 6.37,-8.19 12.19,-17.19 17.33,-27.01 9.32,-17.78 -6.31,-35 -21.13,-34.99"
         style="fill:#4c4c4d;fill-opacity:1;fill-rule:nonzero;stroke:none"
         id="path352" /><path
         d="m 3076.67,4464 c -23.45,-0.02 -16.33,108.24 -45.34,121.33 -2.44,1.1 -5.34,1.52 -8.6,1.52 -5.02,0 -10.91,-0.99 -17.35,-1.98 -6.44,-0.99 -13.43,-1.98 -20.64,-1.98 -40.2,0 -87.43,30.72 -86.26,263.34 1.73,343.18 -57.75,1422.51 -57.75,1422.51 l 2297.03,292.32 c 4.69,-8.53 15.35,-10.57 28.22,-10.57 5.93,0 12.33,0.43 18.84,0.87 6.5,0.43 13.12,0.87 19.48,0.87 21.69,0 40.36,-5.06 41.49,-32.45 2.5,-60.84 336.63,-1540.29 325.84,-1647.39 -10.81,-107.1 -285.03,-87.87 -586.46,-145.95 -301.44,-58.07 -1314.4,-175.82 -1479.35,-228.3 -78.61,-25 -171.88,-29.85 -251.17,-29.85 -25.05,0 -48.7,0.49 -70.06,0.97 -21.36,0.48 -40.42,0.97 -56.29,0.97 -23.42,0 -39.88,-1.06 -46.48,-4.71 -1.87,-1.04 -3.58,-1.52 -5.15,-1.52"
         style="fill:#e2e1df;fill-opacity:1;fill-rule:nonzero;stroke:none"
         id="path354" /><path
         d="m 2765.37,6381.08 c 15.95,2.98 636.75,71.06 751.57,100.35 114.82,29.29 639.43,107.52 707.82,113.49 68.4,5.97 523.85,50.07 566.25,51.93 42.4,1.85 292.07,9.65 292.07,9.65 l 17.34,-35.45 85.06,-11.26 c 0,0 150.05,-1075.7 164.21,-1175.92 14.16,-100.23 60.83,-459.59 60.83,-459.59 l 20.16,-94.77 c 0,0 -914.76,-99.52 -1041.51,-131.27 -126.74,-31.76 -824.47,-91.33 -874.33,-117.6 -49.86,-26.27 -520.86,-72.33 -520.86,-72.33 l 21.1,105.1 c 0,0 -83.68,-62.4 -92.62,29.44 -8.94,91.85 -157.09,1688.23 -157.09,1688.23"
         style="fill:#f5f5e3;fill-opacity:1;fill-rule:nonzero;stroke:none"
         id="path356" /><path
         d="m 4499.67,6377.26 c -0.52,5.34 -6.83,8.65 -11.46,7.63 -5.55,-1.24 -7.8,-6.45 -7.28,-11.81 0.69,-7.06 0.56,-14.17 0,-21.22 -1.01,-12.75 18.16,-13.88 19.17,-1.14 0.71,8.88 0.44,17.66 -0.43,26.54"
         style="fill:#ffffff;fill-opacity:1;fill-rule:nonzero;stroke:none"
         id="path358" /><path
         d="m 4699.29,6366.75 c -0.57,5.34 -6.79,8.67 -11.46,7.63 -5.51,-1.22 -7.86,-6.45 -7.28,-11.8 0.81,-7.52 0.56,-15.08 -0.29,-22.56 -0.6,-5.33 4.18,-10.2 9.12,-10.49 5.47,-0.32 9.45,4.01 10.06,9.35 1.05,9.33 0.86,18.53 -0.15,27.87"
         style="fill:#ffffff;fill-opacity:1;fill-rule:nonzero;stroke:none"
         id="path360" /><path
         d="m 4499.67,6377.26 c -0.52,5.34 -6.83,8.65 -11.46,7.63 -5.55,-1.24 -7.8,-6.45 -7.28,-11.81 0.69,-7.06 0.56,-14.17 0,-21.22 -1.01,-12.75 18.16,-13.88 19.17,-1.14 0.71,8.88 0.44,17.66 -0.43,26.54"
         style="fill:#4c4c4d;fill-opacity:1;fill-rule:nonzero;stroke:none"
         id="path362" /><path
         d="m 4699.29,6366.75 c -0.57,5.34 -6.79,8.67 -11.46,7.63 -5.51,-1.22 -7.86,-6.45 -7.28,-11.8 0.81,-7.52 0.56,-15.08 -0.29,-22.56 -0.6,-5.33 4.18,-10.2 9.12,-10.49 5.47,-0.32 9.45,4.01 10.06,9.35 1.05,9.33 0.86,18.53 -0.15,27.87"
         style="fill:#4c4c4d;fill-opacity:1;fill-rule:nonzero;stroke:none"
         id="path364" /><path
         d="m 4499.67,6377.26 c -0.52,5.34 -6.83,8.65 -11.46,7.63 -5.55,-1.24 -7.8,-6.45 -7.28,-11.81 0.69,-7.06 0.56,-14.17 0,-21.22 -1.01,-12.75 18.16,-13.88 19.17,-1.14 0.71,8.88 0.44,17.66 -0.43,26.54"
         style="fill:#4c4c4d;fill-opacity:1;fill-rule:nonzero;stroke:none"
         id="path366" /><path
         d="m 4699.29,6366.75 c -0.57,5.34 -6.79,8.67 -11.46,7.63 -5.51,-1.22 -7.86,-6.45 -7.28,-11.8 0.81,-7.52 0.56,-15.08 -0.29,-22.56 -0.6,-5.33 4.18,-10.2 9.12,-10.49 5.47,-0.32 9.45,4.01 10.06,9.35 1.05,9.33 0.86,18.53 -0.15,27.87"
         style="fill:#4c4c4d;fill-opacity:1;fill-rule:nonzero;stroke:none"
         id="path368" /><path
         d="m 4460.14,6510.49 c 0,0 64.55,42.92 158.12,29.41 93.57,-13.52 144.53,-73.25 171.05,-101.69 26.51,-28.43 49.24,-95.44 54.76,-120.64 5.52,-25.2 -4.76,-119.1 -30.15,-147.44 -25.4,-28.34 -96.41,-145.49 -202.67,-136.19 -106.27,9.29 -169.11,21.97 -213.04,88.25 -43.92,66.29 -68.11,123.05 -65.09,165.84 3.02,42.79 18.72,109.51 47.28,143.63 28.56,34.12 60.68,68.73 79.74,78.83"
         style="fill:#f3cc30;fill-opacity:1;fill-rule:nonzero;stroke:none"
         id="path370" /><path
         d="m 4499.67,6377.26 c -0.52,5.34 -6.83,8.65 -11.46,7.63 -5.55,-1.24 -7.8,-6.45 -7.28,-11.81 0.69,-7.06 0.56,-14.17 0,-21.22 -1.01,-12.75 18.16,-13.88 19.17,-1.14 0.71,8.88 0.44,17.66 -0.43,26.54"
         style="fill:#4c4c4d;fill-opacity:1;fill-rule:nonzero;stroke:none"
         id="path372" /><path
         d="m 4699.29,6366.75 c -0.57,5.34 -6.79,8.67 -11.46,7.63 -5.51,-1.22 -7.86,-6.45 -7.28,-11.8 0.81,-7.52 0.56,-15.08 -0.29,-22.56 -0.6,-5.33 4.18,-10.2 9.12,-10.49 5.47,-0.32 9.45,4.01 10.06,9.35 1.05,9.33 0.86,18.53 -0.15,27.87"
         style="fill:#4c4c4d;fill-opacity:1;fill-rule:nonzero;stroke:none"
         id="path374" /><path
         d="m 4729.52,6254.23 c -24.71,-54.68 -81.74,-90.64 -140.22,-88.91 -60.05,1.77 -114.37,40.87 -142.07,95.28 -5.77,11.34 -22.83,2.35 -17.03,-9.03 31.55,-61.99 95.04,-106.68 163.65,-106.15 65.89,0.5 126.2,41.13 153.9,102.44 5.21,11.54 -13.08,17.79 -18.23,6.37"
         style="fill:#4c4c4d;fill-opacity:1;fill-rule:nonzero;stroke:none"
         id="path376" /><path
         d="m 4786.97,6147.44 c -62.47,-86.12 -182.53,-126.69 -280.65,-84.41 -30.33,13.07 -63,32.91 -90.83,57.22 l -0.22,0.29 c -54.45,58.29 -78.79,140.46 -63.35,219.81 0.34,1.72 0.28,3.33 -0.04,4.8 19.31,76.45 73.25,142.21 145.57,171.2 90.71,36.36 201.4,8.17 269.43,-63.61 78.41,-82.73 86.91,-213.17 20.09,-305.3 z m 16.62,293.39 c -63.08,86.65 -175.93,128.96 -277.58,106.29 -101.51,-22.63 -179.74,-112.09 -198.19,-216 l 2.17,0.56 c -10.41,-75.52 10.18,-152.01 57.7,-210.79 l -0.85,-1.47 c 3.72,-3.72 7.58,-7.35 11.51,-10.91 l 1.78,-2.03 c 1.06,-1.14 2.21,-1.92 3.39,-2.47 28.17,-24.53 60.7,-44.98 92.5,-59.33 101.55,-45.82 225.43,-8.22 296.28,76.05 75.05,89.27 80.76,224.68 11.29,320.1"
         style="fill:#4c4c4d;fill-opacity:1;fill-rule:nonzero;stroke:none"
         id="path378" /><path
         d="m 2934.86,4640.83 c -70.05,578.71 -125.18,1159.16 -165.33,1740.7 -3.65,-4.53 -7.29,-9.07 -10.94,-13.61 275.46,39.49 551.37,76.33 825.79,122.7 258.5,43.67 516.26,85.01 778.1,102.77 111.92,7.59 222.08,18.88 333.48,31.98 55.61,6.54 111.04,9.71 167.01,11.38 31.42,0.95 62.86,1.62 94.29,2.42 15.65,0.4 31.3,0.82 46.96,1.3 13.53,0.42 46.44,7.27 59.2,2.24 22.69,-8.96 25.25,-61.07 27.36,-78.93 4.06,-34.42 8.21,-68.82 12.43,-103.22 8.06,-65.73 16.37,-131.42 24.86,-197.09 17.36,-134.41 35.43,-268.72 53.6,-403.02 40.73,-301.15 82.2,-602.25 117.37,-904.12 3.64,4.54 7.29,9.07 10.94,13.61 -618.84,-97.77 -1242.91,-156.34 -1863.44,-241.77 -173.11,-23.83 -345.92,-49.86 -518.17,-79.32 -15.6,-2.68 -13.03,-27.25 2.67,-24.56 617.6,105.63 1241.58,165.92 1862.61,246.91 173.29,22.61 346.37,46.91 519,74.18 6.56,1.05 11.74,6.72 10.94,13.62 -32.53,279.25 -70.48,557.84 -108.2,836.42 -18.85,139.15 -37.68,278.3 -55.85,417.53 -17.34,132.81 -29.77,267.47 -51.45,399.24 -6.64,40.38 -8.54,56.8 -53.84,54.79 -69.06,-3.08 -138.2,-3.84 -207.29,-6.08 -112.47,-3.65 -222.71,-21.66 -334.5,-32.85 -130.39,-13.05 -261.48,-16.91 -391.87,-31.44 -132.12,-14.72 -263.59,-34.61 -394.67,-56.69 -322.67,-54.36 -646.12,-101.01 -970.01,-147.44 -6.8,-0.98 -11.41,-6.75 -10.94,-13.62 40.16,-581.55 95.29,-1161.99 165.33,-1740.71 1.91,-15.77 26.47,-13.13 24.56,2.68"
         style="fill:#4c4c4d;fill-opacity:1;fill-rule:nonzero;stroke:none"
         id="path380" /><path
         d="m 2987.27,4640.63 c -1.83,-26.77 -3.66,-53.56 -5.48,-80.35 -0.54,-7.87 4.97,-15.2 13.53,-14.25 331.51,36.68 659.5,98.03 989.75,143.81 165.98,23.01 333.1,34.91 499.11,56.95 164.23,21.79 326.84,54.26 491.37,74.9 92.85,11.64 185.9,21.72 279.07,30.42 38.59,3.6 77.45,8.49 116.21,9.28 20.18,0.41 45.76,-2.57 64.4,6.64 4.4,2.18 9.03,7.35 7.73,12.82 -18.19,76.74 -27.52,153.58 -37.6,231.81 -15.45,119.74 -31.4,239.42 -47.68,359.06 -32.82,241.03 -67.01,481.87 -101.16,722.72 -19.69,138.88 -39.36,277.77 -58.77,416.69 -0.68,4.9 -4.86,10.57 -10.3,10.86 -23.32,1.24 -46.64,2.47 -69.96,3.71 -15.74,0.84 -19.81,-23.55 -3.95,-24.39 23.32,-1.24 46.64,-2.48 69.96,-3.71 -3.43,3.62 -6.87,7.23 -10.3,10.85 67.42,-482.63 138.18,-964.82 201.07,-1448.08 12.34,-94.78 22.07,-189.12 44.13,-282.2 2.58,4.28 5.15,8.56 7.73,12.83 -17.17,-8.48 -42.57,-4.58 -61.23,-5.1 -35.27,-0.96 -70.64,-5.31 -105.76,-8.57 -81.26,-7.53 -162.43,-16.09 -243.45,-25.83 -164.74,-19.8 -327.56,-48.86 -491.45,-74.06 -163.15,-25.09 -328.59,-34.47 -492.24,-56.3 -162.81,-21.71 -324.97,-47.8 -487.21,-73.31 -183.6,-28.87 -367.38,-56.79 -552.14,-77.24 4.5,-4.76 9.02,-9.51 13.53,-14.26 1.82,26.79 3.65,53.57 5.48,80.36 1.07,15.75 -23.32,19.8 -24.39,3.94"
         style="fill:#4c4c4d;fill-opacity:1;fill-rule:nonzero;stroke:none"
         id="path382" /><path
         d="m 4814.2,6719.73 c 17.27,35.91 37.31,86.41 63.63,116.04 37.83,42.58 102.4,15.75 131.88,-3.92 51.39,-34.3 29.29,-85.95 7.27,-155.39 -30.88,-97.39 -63.11,-196.04 -106.38,-289.68 -10.97,-23.74 -21.09,-43.54 -43.41,-48.57 -25.54,-5.75 -63.23,7.64 -80.2,24.85 -41.78,42.38 19.84,172.62 46.17,228.63 5.59,11.87 19.13,5.62 13.54,-6.27 -18.85,-40.09 -34.73,-80.99 -45.8,-123.37 -9.24,-35.39 -17.65,-64.51 8.98,-90.57 9.68,-9.46 36.48,-19.35 49.69,-14.04 37.64,15.09 53,69.76 68.4,108.44 15.53,38.99 29.7,78.38 43.13,117.97 12.69,37.39 24.64,74.96 36.48,112.53 4.96,15.78 13,35.28 15.9,51.39 8.33,46.23 -8.67,58.71 -33.51,72.4 -25.4,14 -64.29,27.47 -94.91,5.24 -28.24,-20.5 -50.82,-77.66 -67.33,-111.96 -34.52,-71.77 -63.62,-146.08 -87.83,-221.38 -21.65,-67.37 -54.33,-156.82 -11.64,-203.28 18.11,-19.7 45.23,-30.13 69.82,-37.33 44.91,-13.15 81.48,-7.79 113.31,53.11 37.1,70.97 64.5,146.81 84.64,223.09 3.3,12.52 18.63,11.39 15.32,-1.14 -22.59,-85.62 -54.31,-180.38 -101.83,-256.89 -36.17,-58.22 -85.36,-48.13 -126.86,-34.41 -46.32,15.31 -92.05,42.69 -91.72,110.25 0.38,75.77 38.24,167.24 66.28,241.2 17.08,45.06 36.04,89.54 56.98,133.06"
         style="fill:#72a3d8;fill-opacity:1;fill-rule:nonzero;stroke:none"
         id="path384" /><path
         d="m 4924.03,6844.38 c 20.71,2.26 44.49,-3.58 69.66,-17.45 22.41,-12.35 39.9,-25.09 39.63,-58.6 1.58,23.39 -5.26,41.99 -27.9,57.1 -29.48,19.68 -88.32,42.92 -121.82,5.22 -11.28,-12.71 -21.45,-29.55 -30.78,-47.52 11.07,20.11 23.55,38.26 37.71,48.53 9.84,7.14 21.12,11.38 33.5,12.72 z m -100.05,-291.07 c -26.72,-60.03 -62.37,-153.51 -31.49,-184.83 14.61,-14.82 49.62,-28.04 73,-22.73 17.62,3.96 26.3,18.98 36.82,41.51 -10.12,-16.52 -22.77,-30.14 -39.87,-36.99 -16.91,-6.79 -46.84,4.82 -57.96,15.7 -29.22,28.6 -20.7,61.15 -11.67,95.63 l 0.63,2.4 c 7.55,28.92 17.62,58.39 30.54,89.31 z m -73.81,-6.73 c -25.21,-66.23 -51.2,-138.96 -51.5,-201.15 -0.34,-65.77 46.01,-89.53 86.41,-102.89 39.55,-13.08 84.54,-22.52 117.88,31.17 29.98,48.27 56.27,108.03 79.67,181.39 -18.23,-55.39 -39.78,-107.01 -64.4,-154.11 -37.07,-70.89 -82.64,-68.55 -122.33,-56.94 -23.57,6.91 -53.21,17.64 -73.32,39.52 -43.22,47.05 -15.9,131.17 6.07,198.77 l 3.9,12.09 c 5.65,17.55 11.53,34.94 17.62,52.15 z m 95.66,-329.07 c -25.7,-2.8 -49.99,5.23 -65.6,10.38 -41.82,13.83 -97.38,41.06 -97,117.62 0.35,70.35 31.51,151.74 59.01,223.54 l 7.76,20.35 c 17.45,46.01 36.71,90.98 57.25,133.67 3.4,7.1 6.93,14.76 10.58,22.72 15.18,33.05 32.37,70.51 54.24,95.11 40.55,45.67 108.29,19.82 141.92,-2.63 52.18,-34.82 35.19,-87.27 15.54,-148.02 -1.71,-5.26 -3.45,-10.64 -5.19,-16.13 -31.75,-100.11 -63.79,-197.66 -106.73,-290.58 -10.13,-21.9 -21.6,-46.75 -48.73,-52.86 -29.34,-6.58 -69.59,8.92 -87.38,26.97 -45.32,45.94 15.14,174.51 44.2,236.3 l 0.48,1.03 c 4.88,10.34 14.6,12.58 21.26,9.46 6.64,-3.13 11.09,-12 6.25,-22.31 -20.36,-43.29 -35.18,-83.2 -45.32,-122.03 l -0.63,-2.41 c -8.87,-33.89 -15.28,-58.36 7.54,-80.68 8.31,-8.14 31.99,-16.17 41.41,-12.42 29.22,11.72 44.26,51.7 57.53,86.98 2.24,5.94 4.41,11.71 6.59,17.17 14.01,35.21 28.08,73.67 42.99,117.59 13.24,39.03 25.74,78.47 36.41,112.37 1.57,4.95 3.42,10.26 5.33,15.73 4.15,11.89 8.45,24.18 10.35,34.72 7.47,41.49 -6.4,51.45 -29.64,64.26 -24.54,13.51 -59.48,25.48 -86.66,5.76 -21.97,-15.95 -41.77,-59.02 -56.23,-90.47 -3.06,-6.64 -5.94,-12.93 -8.67,-18.59 -33.18,-68.95 -62.6,-143.1 -87.43,-220.4 l -3.93,-12.14 c -20.73,-63.78 -46.51,-143.15 -9.39,-183.55 17.54,-19.08 44.64,-28.81 66.31,-35.16 42.06,-12.32 74.17,-8.36 104.3,49.29 34.26,65.53 62.52,140.04 84,221.48 1.87,7.08 6.74,12.33 13.01,14.04 5.14,1.37 10.32,0.12 13.86,-3.38 3.8,-3.77 5.04,-9.51 3.4,-15.74 -28.89,-109.48 -62.5,-194.19 -102.75,-258.99 -20.63,-33.2 -46.06,-45.42 -70.24,-48.05"
         style="fill:#72a3d8;fill-opacity:1;fill-rule:nonzero;stroke:none"
         id="path386" /></g></g></svg>
